<svg width="241" height="240" viewBox="0 0 241 240" fill="none" xmlns="http://www.w3.org/2000/svg">
<path d="M212.58 206.198C207.763 211.27 203.204 214.541 199.601 217.126C157.261 247.506 107.161 238.65 96.5133 236.487C80.7901 233.294 50.3977 227.121 28.4246 201.281C-4.81874 162.186 0.357367 100.595 26.1439 59.938C30.8609 52.5008 55.7755 11.2244 106.415 4.6053C137.061 0.599476 172.786 8.67865 198.656 30.3533C252.96 75.8493 249.094 167.759 212.581 206.198L212.58 206.198Z" fill="url(#paint0_linear_137_5705)"/>
<path d="M15.2071 1.69042C14.819 0.493636 16.2149 -0.489441 17.2228 0.262826C27.4622 7.89919 52.6503 31.3904 52.2784 77.489C51.8125 135.326 66.062 154.791 82.2973 165.808C82.2973 165.808 61.3039 162.146 46.1227 142.476C8.84784 94.1825 22.1006 22.9676 15.2071 1.69042Z" fill="#91B3FA"/>
<path d="M24.2741 18.708C26.1531 24.927 27.909 31.1802 29.434 37.4881C30.9916 43.7875 32.3576 50.1305 33.5236 56.5077C34.6648 62.8883 35.6864 69.2894 36.4352 75.7247C37.2123 82.1566 37.7124 88.6141 38.1919 95.099C38.7074 101.578 39.1896 108.108 40.3419 114.608C41.4857 121.096 43.4228 127.552 46.4814 133.462C47.2456 134.935 48.0398 136.399 48.9118 137.803C49.7581 139.223 50.6685 140.606 51.602 141.972C53.4843 144.696 55.5505 147.299 57.8005 149.737C62.3132 154.602 67.5637 158.776 73.2117 162.171C73.8058 162.529 74.5777 162.336 74.9351 161.742C75.2864 161.158 75.1069 160.404 74.5376 160.038L74.5333 160.036C73.1835 159.171 71.8448 158.292 70.5497 157.356C69.8949 156.899 69.2614 156.412 68.6194 155.939C67.9963 155.441 67.3526 154.968 66.7456 154.452C64.2819 152.429 61.9627 150.236 59.8171 147.882C55.5078 143.2 51.8764 137.85 48.9442 132.209C47.5098 129.371 46.2865 126.433 45.294 123.41C44.3033 120.386 43.5442 117.281 42.9611 114.131C41.7943 107.828 41.2634 101.368 40.7018 94.8938C40.1316 88.4183 39.5135 81.9146 38.6296 75.4469C38.1962 72.2121 37.7047 68.9859 37.1559 65.77C36.8909 64.1603 36.5942 62.5566 36.301 60.952C35.9924 59.3501 35.6744 57.7506 35.3444 56.1538C34.01 49.7689 32.4816 43.4276 30.7556 37.1436C28.9989 30.8682 27.0763 24.6415 24.917 18.4985C24.8554 18.3233 24.6631 18.231 24.487 18.2925C24.3169 18.3524 24.2246 18.5361 24.2759 18.708H24.2741Z" fill="#BDD0FB"/>
<path d="M63.5485 204.412C63.1467 206.694 60.5437 207.824 58.5853 206.586C47.7766 199.748 18.9656 177.655 13.7501 133.815C9.3451 96.793 3.43895 77.1366 0.139234 68.3992C-0.558323 66.5519 1.50785 64.8875 3.16625 65.9595C21.466 77.788 78.1169 121.697 63.5485 204.412Z" fill="#7D97F4"/>
<path d="M60.4598 204.97C60.4179 205.009 60.3717 205.045 60.3222 205.077C59.9007 205.346 59.3408 205.221 59.0732 204.799C58.7698 204.321 28.5885 156.396 20.1391 105.196C20.0579 104.704 20.3913 104.238 20.8846 104.156C21.3778 104.075 21.8437 104.408 21.9249 104.901C30.3127 155.728 60.2991 203.352 60.6008 203.828C60.8368 204.2 60.7684 204.677 60.4607 204.969L60.4598 204.97Z" fill="#91B3FA"/>
<path d="M58.1424 4.78299C52.2987 5.29077 47.8184 10.1856 47.8013 16.0508C47.6996 51.9228 47.5321 175.654 49.8701 219.448C50.118 224.088 53.9212 227.733 58.5673 227.783C81.5465 228.03 147.644 228.485 185.169 226.085C192.985 225.584 199.066 219.112 199.057 211.279C199.011 173.63 198.409 67.7495 193.252 19.3522C192.634 13.5537 187.973 9.02731 182.159 8.57424C157.096 6.62177 90.5438 1.96455 58.1416 4.78213L58.1424 4.78299Z" fill="url(#paint1_linear_137_5705)"/>
<path d="M57.0247 25.4527C56.5733 56.1383 55.2885 158.215 57.5316 195.89C57.859 201.397 62.1367 205.744 67.4188 205.928C89.1653 206.687 144.93 208.153 176.706 204.656C182.428 204.027 186.801 199.067 186.953 193.062C187.748 161.748 189.895 66.6752 187.715 29.4217C187.367 23.4788 182.827 18.737 177.135 18.3531C153.589 16.7665 93.1258 13.1078 66.1049 15.3578C61.0322 15.7801 57.1033 20.1406 57.0255 25.4535L57.0247 25.4527Z" fill="url(#paint2_linear_137_5705)"/>
<path d="M109.566 10.118C109.585 10.966 110.261 11.6507 111.108 11.6764C115.293 11.8037 127.08 12.1645 132.349 12.3542C133.387 12.3919 134.182 11.4413 133.962 10.4249C133.944 10.3932 133.809 9.09044 132.479 8.99726C128.915 8.74935 118.163 8.08171 111.057 8.49119C109.598 8.57496 109.518 10.2351 109.566 10.118Z" fill="url(#paint3_linear_137_5705)"/>
<path opacity="0.8" d="M92.5114 94.143C108.263 94.143 121.033 81.3736 121.033 65.6218C121.033 49.87 108.263 37.1006 92.5114 37.1006C76.7596 37.1006 63.9902 49.87 63.9902 65.6218C63.9902 81.3736 76.7596 94.143 92.5114 94.143Z" fill="white"/>
<mask id="mask0_137_5705" style="mask-type:luminance" maskUnits="userSpaceOnUse" x="67" y="40" width="51" height="52">
<path d="M92.5115 91.0219C106.54 91.0219 117.912 79.6499 117.912 65.6218C117.912 51.5937 106.54 40.2217 92.5115 40.2217C78.4834 40.2217 67.1113 51.5937 67.1113 65.6218C67.1113 79.6499 78.4834 91.0219 92.5115 91.0219Z" fill="white"/>
</mask>
<g mask="url(#mask0_137_5705)">
<path d="M103.368 62.042C104.973 56.1076 101.463 49.9961 95.5284 48.3916C89.594 46.787 83.4825 50.297 81.878 56.2314C80.2734 62.1658 83.7834 68.2773 89.7178 69.8819C95.6522 71.4864 101.764 67.9764 103.368 62.042Z" fill="url(#paint4_linear_137_5705)"/>
<path d="M75.713 92.5612H111.176C113.35 92.5612 114.653 89.7513 113.483 87.6073C110.47 82.091 104.168 73.9879 93.2537 74.3538C82.7339 74.706 76.4986 82.026 73.3639 87.2757C72.0329 89.5043 73.3904 92.5612 75.7139 92.5612H75.713Z" fill="url(#paint5_linear_137_5705)"/>
</g>
<path d="M100.173 177.585H135.649C136.812 177.585 137.757 178.53 137.757 179.693V189.784C137.757 190.947 136.812 191.892 135.649 191.892H100.173C99.0091 191.892 98.0645 190.947 98.0645 189.784V179.693C98.0645 178.53 99.0091 177.585 100.173 177.585Z" fill="url(#paint6_linear_137_5705)"/>
<g opacity="0.8">
<g opacity="0.8">
<path d="M82.1714 117.906H162.204C162.842 117.906 163.36 118.424 163.36 119.062V124.627C163.36 125.265 162.842 125.783 162.204 125.783H82.1714C81.5337 125.783 81.0156 125.265 81.0156 124.627V119.062C81.0156 118.424 81.5337 117.906 82.1714 117.906Z" fill="white"/>
<path d="M70.4529 126.595C73.0902 126.595 75.2281 124.457 75.2281 121.82C75.2281 119.183 73.0902 117.045 70.4529 117.045C67.8157 117.045 65.6777 119.183 65.6777 121.82C65.6777 124.457 67.8157 126.595 70.4529 126.595Z" fill="white"/>
</g>
<g opacity="0.8">
<path d="M162.205 132.687H82.1714C81.5331 132.687 81.0156 133.204 81.0156 133.842V139.407C81.0156 140.046 81.5331 140.563 82.1714 140.563H162.205C162.843 140.563 163.361 140.046 163.361 139.407V133.842C163.361 133.204 162.843 132.687 162.205 132.687Z" fill="white"/>
<path d="M75.1687 137.372C75.5912 134.769 73.8235 132.316 71.2203 131.894C68.6171 131.471 66.1642 133.239 65.7417 135.842C65.3191 138.445 67.0869 140.898 69.6901 141.321C72.2932 141.743 74.7461 139.976 75.1687 137.372Z" fill="white"/>
</g>
<g opacity="0.8">
<path d="M82.1714 147.469H162.204C162.842 147.469 163.36 147.987 163.36 148.625V154.19C163.36 154.827 162.842 155.345 162.204 155.345H82.1714C81.5337 155.345 81.0156 154.827 81.0156 154.19V148.625C81.0156 147.987 81.5337 147.469 82.1714 147.469Z" fill="white"/>
<path d="M70.4529 156.158C73.0902 156.158 75.2281 154.02 75.2281 151.383C75.2281 148.745 73.0902 146.607 70.4529 146.607C67.8157 146.607 65.6777 148.745 65.6777 151.383C65.6777 154.02 67.8157 156.158 70.4529 156.158Z" fill="white"/>
</g>
<path opacity="0.8" d="M162.205 162.248H82.1714C81.5331 162.248 81.0156 162.765 81.0156 163.404V168.969C81.0156 169.607 81.5331 170.125 82.1714 170.125H162.205C162.843 170.125 163.361 169.607 163.361 168.969V163.404C163.361 162.765 162.843 162.248 162.205 162.248Z" fill="white"/>
<path opacity="0.8" d="M70.4529 170.939C73.0902 170.939 75.2281 168.801 75.2281 166.164C75.2281 163.527 73.0902 161.389 70.4529 161.389C67.8157 161.389 65.6777 163.527 65.6777 166.164C65.6777 168.801 67.8157 170.939 70.4529 170.939Z" fill="white"/>
</g>
<path opacity="0.8" d="M129.665 102.511H66.8891C66.3226 102.511 65.8633 102.97 65.8633 103.537V109.361C65.8633 109.928 66.3226 110.387 66.8891 110.387H129.665C130.231 110.387 130.691 109.928 130.691 109.361V103.537C130.691 102.97 130.231 102.511 129.665 102.511Z" fill="white"/>
<path d="M202.144 30.9694C201.976 28.3638 200.402 26.0549 198.042 24.935L167.481 10.4205C165.523 9.49133 163.252 9.49133 161.295 10.4205L130.733 24.935C128.375 26.0557 126.801 28.3638 126.632 30.9694C123.766 75.2814 152.177 91.426 161.491 95.5045C163.338 96.3132 165.437 96.3132 167.283 95.5045C176.597 91.426 205.01 75.2805 202.142 30.9694H202.144Z" fill="url(#paint7_linear_137_5705)"/>
<path d="M155.143 16.5358C154.979 16.5358 154.824 16.4443 154.749 16.287C154.646 16.0699 154.738 15.81 154.955 15.7074L162.176 12.2778C162.393 12.1743 162.653 12.2666 162.756 12.4838C162.859 12.7009 162.767 12.9608 162.55 13.0634L155.329 16.493C155.268 16.5212 155.205 16.5349 155.143 16.5349V16.5358Z" fill="#91B3FA"/>
<path d="M128.97 40.4533C128.737 40.4533 128.544 40.2678 128.536 40.0327C128.439 37.1502 128.49 34.1462 128.686 31.1021C128.807 29.2462 129.929 27.5947 131.617 26.7928L152.176 17.0287C152.393 16.9253 152.653 17.0176 152.755 17.2347C152.859 17.4519 152.767 17.7118 152.549 17.8143L131.99 27.5784C130.588 28.2443 129.655 29.6164 129.555 31.1577C129.36 34.1727 129.31 37.1493 129.405 40.0028C129.414 40.243 129.225 40.4448 128.986 40.4524C128.98 40.4524 128.975 40.4524 128.97 40.4524V40.4533Z" fill="#91B3FA"/>
<path d="M194.753 32.6991C194.72 32.0383 194.326 31.4485 193.728 31.1646L165.158 17.5956C164.67 17.364 164.104 17.364 163.616 17.5956L135.046 31.1646C134.448 31.4485 134.055 32.0383 134.021 32.6991C133.176 49.2285 136.994 63.0206 145.377 73.7096C151.768 81.8597 159.244 86.2272 163.625 88.2643C164.108 88.4891 164.663 88.4891 165.146 88.2643C169.527 86.2263 177.004 81.8589 183.395 73.7096C191.777 63.0197 195.596 49.2285 194.75 32.6991H194.753Z" fill="url(#paint8_linear_137_5705)"/>
<path d="M146.246 50.816C148.608 49.3525 151.712 50.1168 153.124 52.5103L159.765 63.7678C160.43 64.8945 162.095 64.7826 162.602 63.5764L177.543 28.0446C178.289 26.2716 180.914 26.8016 180.932 28.7242C181.03 39.4807 178.67 59.9869 161.903 77.5087C161.903 77.5087 152.347 74.0568 144.319 57.4992C143.16 55.1074 143.987 52.2163 146.247 50.816H146.246Z" fill="url(#paint9_linear_137_5705)"/>
<path d="M207.142 228.519C207.142 228.519 207.689 231.616 207.957 234.682C208.062 235.881 207.138 236.921 205.936 236.97C201.854 237.141 193.12 237.471 189.986 237.331C189.515 237.31 189.207 236.828 189.381 236.39C189.528 236.022 189.81 235.726 190.169 235.561L204.595 228.931L207.143 228.519H207.142Z" fill="url(#paint10_linear_137_5705)"/>
<path d="M207.591 226.698L207.151 230.403C207.151 230.403 204.624 231.579 202.898 230.255L203.945 226.126L207.591 226.698Z" fill="url(#paint11_linear_137_5705)"/>
<path d="M207.26 157.046C207.45 158.014 208.279 205.327 203.222 226.529C203.139 226.875 203.315 227.231 203.644 227.365C204.419 227.683 205.94 228.142 207.762 228.202C208.327 228.221 208.833 227.854 208.992 227.312C210.437 222.394 217.365 197.747 218.269 174.201C219.278 147.893 218.269 173.306 218.269 173.306L217.676 157.043L207.26 157.045V157.046Z" fill="url(#paint12_linear_137_5705)"/>
<path d="M223.737 230.134C223.737 230.134 224.609 231.697 225.451 235.853C225.604 236.603 225.08 237.321 224.317 237.397C222.969 237.529 220.893 237.699 219.231 237.688C218.464 237.683 217.866 237.015 217.959 236.254C218.142 234.738 218.717 232.25 220.489 230.31L223.737 230.134Z" fill="url(#paint13_linear_137_5705)"/>
<path d="M224.503 225.368L223.476 230.971C223.476 230.971 222.46 231.727 220.451 231.179L220.941 225.15L224.502 225.368H224.503Z" fill="url(#paint14_linear_137_5705)"/>
<path d="M227.276 158.498C231.413 183.461 226.379 220.195 224.682 227.384C224.577 227.825 224.223 228.162 223.776 228.236C223.019 228.362 221.771 228.464 220.542 228.107C220.118 227.984 219.82 227.602 219.803 227.161C219.576 221.348 219.985 185.664 216.131 171.56C215.937 170.846 215.5 170.222 214.896 169.793L207.415 164.475L206.842 155.879L227.277 158.497L227.276 158.498Z" fill="url(#paint15_linear_137_5705)"/>
<path d="M200.92 111.199C213.316 110.994 226.993 114.453 226.993 114.453C230.688 136.013 227.639 160.88 227.639 160.88C218.043 163.397 207.218 159.341 207.218 159.341C205.623 150.33 198.181 124.97 198.181 124.97C192.125 124.218 187.136 122.471 183.027 120.16C186.161 116.527 187.638 111.905 188.28 109.173C192.663 110.535 197.097 111.262 200.921 111.199H200.92Z" fill="url(#paint16_linear_137_5705)"/>
<path d="M164.307 92.9414C165.524 91.4711 167.065 92.1661 167.065 92.1661C168.889 99.8717 178.454 106.119 188.28 109.172C187.638 111.905 186.161 116.528 183.027 120.16C166.72 110.991 164.307 92.9406 164.307 92.9406V92.9414Z" fill="url(#paint17_linear_137_5705)"/>
<path d="M164.602 93.3151C164.475 93.7203 165.95 94.3366 166.819 92.6799C166.849 91.8858 167.331 88.4844 166.857 87.8381C164.33 84.393 159.432 80.0752 159.432 80.0752C158.603 80.8924 159.286 81.6943 159.286 81.6943L161.662 84.1699C161.165 85.0684 160.558 85.8266 160.275 86.9131C160.059 87.7364 160.191 88.6151 160.606 89.364C161.023 90.1154 161.593 91.0925 162.131 91.8567C163.149 93.304 164.601 93.3142 164.601 93.3142L164.602 93.3151Z" fill="url(#paint18_linear_137_5705)"/>
<path d="M162.702 85.7773L164.868 87.6136L165.547 89.4412L163.616 91.5835C163.616 91.5835 162.967 87.9564 162.484 87.1716C162.002 86.3869 162.252 86.0073 162.702 85.7773H162.702Z" fill="url(#paint19_linear_137_5705)"/>
<path d="M222.238 126.457L226.993 114.455C226.993 114.455 238.571 122.322 240.475 132.296C238.287 132.456 234.306 133.026 230.41 134.994C229.553 130.284 222.238 126.457 222.238 126.457Z" fill="url(#paint20_linear_137_5705)"/>
<path d="M212.12 137.751C212.12 137.751 225.119 145.097 229.505 138.824C230.416 137.521 230.634 136.227 230.41 134.993C234.306 133.025 238.287 132.456 240.475 132.295C241.049 135.301 240.746 138.5 238.979 141.732C231.295 155.787 210.4 140.955 210.4 140.955L212.12 137.751Z" fill="url(#paint21_linear_137_5705)"/>
<path d="M213.682 147.045L206.587 122.269C206.507 121.988 206.267 121.782 205.976 121.748C204.69 121.599 200.966 121.177 196.666 120.814C191.486 120.375 185.471 120.02 181.875 120.322C181.364 120.365 181.056 120.906 181.283 121.365C183.327 125.501 191.735 142.324 195.946 147.834C196.085 148.017 196.302 148.123 196.531 148.121L212.991 147.968C213.47 147.964 213.813 147.504 213.681 147.044L213.682 147.045Z" fill="#BDD0FB"/>
<path d="M195.929 118.665L190.786 117.808C190.512 117.763 190.287 118.024 190.375 118.287L190.884 119.83C190.928 119.965 191.046 120.062 191.186 120.081L196.135 120.742C196.392 120.776 196.603 120.543 196.544 120.292L196.229 118.945C196.194 118.8 196.076 118.689 195.929 118.664V118.665Z" fill="#7D97F4"/>
<path d="M199.78 123.02L199.356 120.813C199.313 120.591 199.13 120.424 198.906 120.402L188.517 119.347C188.168 119.312 187.887 119.632 187.969 119.974L188.63 122.724C188.683 122.944 188.875 123.103 189.1 123.115L199.253 123.626C199.583 123.642 199.842 123.346 199.779 123.02H199.78Z" fill="#7D97F4"/>
<path d="M211.969 141.058C211.969 141.058 212.957 136.994 212.558 135.553C212.16 134.111 211.387 132.258 208.812 132.67C206.238 133.082 203.201 134.167 203.201 134.167C203.201 134.167 203.354 136.045 205.311 135.439L204.098 136.377C204.098 136.377 204.271 137.881 205.924 137.077L204.795 138.323C204.795 138.323 205.505 139.558 206.721 138.766C207.937 137.973 208.52 141.548 211.969 141.059V141.058Z" fill="url(#paint22_linear_137_5705)"/>
<path d="M213.476 101.137L217.421 112.543C217.485 112.732 217.409 112.941 217.233 113.038C216.158 113.632 212.285 115.35 207.617 112.391C207.131 112.082 206.8 111.58 206.726 111.009L205.449 101.137H213.477H213.476Z" fill="url(#paint23_linear_137_5705)"/>
<path d="M204.895 90.5731C204.895 90.5731 200.565 98.7258 201.119 102.019C201.674 105.312 207.042 105.076 211.729 102.401L215.004 93.5976L204.894 90.5723L204.895 90.5731Z" fill="url(#paint24_linear_137_5705)"/>
<path d="M211.522 98.078C211.331 97.9933 211.261 97.7608 211.375 97.5864C211.722 97.0564 212.372 95.9751 212.58 95.0279C212.58 95.0279 213.359 94.5295 210.599 93.8687C207.838 93.2079 203.722 92.1829 202.857 89.833C202.013 87.542 204.23 81.782 207.766 86.3717C207.9 86.5461 208.164 86.5503 208.298 86.3751C208.878 85.6203 210.402 84.055 212.518 85.0039C214.498 85.8921 214.721 87.3428 214.693 88.0745C214.686 88.29 214.878 88.4567 215.089 88.4165C216.09 88.2259 218.492 88.0617 219.614 90.5262C220.537 92.5565 219.937 93.7054 219.391 94.2671C219.214 94.4491 219.292 94.7492 219.534 94.8236C220.193 95.0253 221.041 95.5827 220.957 97.124C220.839 99.2551 218.456 99.067 217.778 98.9704C217.667 98.9542 217.555 98.9927 217.48 99.0756C216.899 99.7193 214.278 102.452 211.441 102.781C211.196 102.81 211.005 102.568 211.086 102.333L212.313 98.7653C212.371 98.5994 212.291 98.4182 212.131 98.3473L211.523 98.078H211.522Z" fill="url(#paint25_linear_137_5705)"/>
<path d="M211.029 98.5849C211.029 98.5849 214.113 96.4691 214.338 98.2506C214.564 100.032 211.562 100.831 210.074 100.167L211.029 98.5849Z" fill="url(#paint26_linear_137_5705)"/>
<defs>
<linearGradient id="paint0_linear_137_5705" x1="270.289" y1="308.936" x2="60.5233" y2="48.4197" gradientUnits="userSpaceOnUse">
<stop stop-color="#DAE3FE"/>
<stop offset="1" stop-color="#E9EFFD"/>
</linearGradient>
<linearGradient id="paint1_linear_137_5705" x1="-103.98" y1="298.978" x2="166.389" y2="79.666" gradientUnits="userSpaceOnUse">
<stop stop-color="#09005D"/>
<stop offset="1" stop-color="#1A0F91"/>
</linearGradient>
<linearGradient id="paint2_linear_137_5705" x1="17.1665" y1="259.28" x2="136.106" y2="89.2825" gradientUnits="userSpaceOnUse">
<stop stop-color="#FEBBBA"/>
<stop offset="1" stop-color="#FF928E"/>
</linearGradient>
<linearGradient id="paint3_linear_137_5705" x1="143.36" y1="-86.6552" x2="125.955" y2="-8.32882" gradientUnits="userSpaceOnUse">
<stop stop-color="#4042E2"/>
<stop offset="1" stop-color="#4F52FF"/>
</linearGradient>
<linearGradient id="paint4_linear_137_5705" x1="67.8417" y1="144.77" x2="126.441" y2="-57.7171" gradientUnits="userSpaceOnUse">
<stop stop-color="#FE7062"/>
<stop offset="1" stop-color="#FF928E"/>
</linearGradient>
<linearGradient id="paint5_linear_137_5705" x1="76.5841" y1="147.302" x2="135.183" y2="-55.185" gradientUnits="userSpaceOnUse">
<stop stop-color="#FE7062"/>
<stop offset="1" stop-color="#FF928E"/>
</linearGradient>
<linearGradient id="paint6_linear_137_5705" x1="140.053" y1="93.1882" x2="106.773" y2="230.789" gradientUnits="userSpaceOnUse">
<stop stop-color="#E1473D"/>
<stop offset="1" stop-color="#E9605A"/>
</linearGradient>
<linearGradient id="paint7_linear_137_5705" x1="278.489" y1="-124.817" x2="228.013" y2="-49.972" gradientUnits="userSpaceOnUse">
<stop stop-color="#4042E2"/>
<stop offset="1" stop-color="#4F52FF"/>
</linearGradient>
<linearGradient id="paint8_linear_137_5705" x1="235.638" y1="-93.7502" x2="206.629" y2="-38.0516" gradientUnits="userSpaceOnUse">
<stop stop-color="#09005D"/>
<stop offset="1" stop-color="#1A0F91"/>
</linearGradient>
<linearGradient id="paint9_linear_137_5705" x1="154.014" y1="83.0071" x2="166.198" y2="29.0499" gradientUnits="userSpaceOnUse">
<stop stop-color="#E1473D"/>
<stop offset="1" stop-color="#E9605A"/>
</linearGradient>
<linearGradient id="paint10_linear_137_5705" x1="190.442" y1="224.237" x2="243.272" y2="281.701" gradientUnits="userSpaceOnUse">
<stop stop-color="#4042E2"/>
<stop offset="1" stop-color="#4F52FF"/>
</linearGradient>
<linearGradient id="paint11_linear_137_5705" x1="207.591" y1="228.505" x2="202.898" y2="228.505" gradientUnits="userSpaceOnUse">
<stop stop-color="#FF928E"/>
<stop offset="1" stop-color="#FEB3B1"/>
</linearGradient>
<linearGradient id="paint12_linear_137_5705" x1="218.717" y1="192.623" x2="203.201" y2="192.623" gradientUnits="userSpaceOnUse">
<stop stop-color="#09005D"/>
<stop offset="1" stop-color="#1A0F91"/>
</linearGradient>
<linearGradient id="paint13_linear_137_5705" x1="202.294" y1="213.341" x2="255.124" y2="270.806" gradientUnits="userSpaceOnUse">
<stop stop-color="#4042E2"/>
<stop offset="1" stop-color="#4F52FF"/>
</linearGradient>
<linearGradient id="paint14_linear_137_5705" x1="224.503" y1="228.264" x2="220.451" y2="228.264" gradientUnits="userSpaceOnUse">
<stop stop-color="#FF928E"/>
<stop offset="1" stop-color="#FEB3B1"/>
</linearGradient>
<linearGradient id="paint15_linear_137_5705" x1="228.868" y1="192.116" x2="206.84" y2="192.116" gradientUnits="userSpaceOnUse">
<stop stop-color="#09005D"/>
<stop offset="1" stop-color="#1A0F91"/>
</linearGradient>
<linearGradient id="paint16_linear_137_5705" x1="213.875" y1="117.545" x2="188.633" y2="185.434" gradientUnits="userSpaceOnUse">
<stop stop-color="#4042E2"/>
<stop offset="1" stop-color="#4F52FF"/>
</linearGradient>
<linearGradient id="paint17_linear_137_5705" x1="221.931" y1="106.081" x2="197.958" y2="106.081" gradientUnits="userSpaceOnUse">
<stop stop-color="#FF928E"/>
<stop offset="1" stop-color="#FEB3B1"/>
</linearGradient>
<linearGradient id="paint18_linear_137_5705" x1="175.849" y1="68.2945" x2="164.826" y2="83.9596" gradientUnits="userSpaceOnUse">
<stop stop-color="#FF928E"/>
<stop offset="1" stop-color="#FEB3B1"/>
</linearGradient>
<linearGradient id="paint19_linear_137_5705" x1="164.422" y1="89.8738" x2="157.71" y2="79.5532" gradientUnits="userSpaceOnUse">
<stop stop-color="#FF928E"/>
<stop offset="1" stop-color="#FEB3B1"/>
</linearGradient>
<linearGradient id="paint20_linear_137_5705" x1="233.097" y1="124.693" x2="207.857" y2="192.582" gradientUnits="userSpaceOnUse">
<stop stop-color="#4042E2"/>
<stop offset="1" stop-color="#4F52FF"/>
</linearGradient>
<linearGradient id="paint21_linear_137_5705" x1="240.739" y1="140.04" x2="210.4" y2="140.04" gradientUnits="userSpaceOnUse">
<stop stop-color="#FF928E"/>
<stop offset="1" stop-color="#FEB3B1"/>
</linearGradient>
<linearGradient id="paint22_linear_137_5705" x1="212.653" y1="136.858" x2="203.201" y2="136.858" gradientUnits="userSpaceOnUse">
<stop stop-color="#FF928E"/>
<stop offset="1" stop-color="#FEB3B1"/>
</linearGradient>
<linearGradient id="paint23_linear_137_5705" x1="208.098" y1="96.8206" x2="213.126" y2="115.773" gradientUnits="userSpaceOnUse">
<stop stop-color="#FF928E"/>
<stop offset="1" stop-color="#FEB3B1"/>
</linearGradient>
<linearGradient id="paint24_linear_137_5705" x1="217.811" y1="81.3638" x2="203.113" y2="104.765" gradientUnits="userSpaceOnUse">
<stop stop-color="#FF928E"/>
<stop offset="1" stop-color="#FEB3B1"/>
</linearGradient>
<linearGradient id="paint25_linear_137_5705" x1="222.821" y1="83.3993" x2="205.784" y2="96.8577" gradientUnits="userSpaceOnUse">
<stop stop-color="#09005D"/>
<stop offset="1" stop-color="#1A0F91"/>
</linearGradient>
<linearGradient id="paint26_linear_137_5705" x1="221.952" y1="83.9644" x2="207.253" y2="107.366" gradientUnits="userSpaceOnUse">
<stop stop-color="#FF928E"/>
<stop offset="1" stop-color="#FEB3B1"/>
</linearGradient>
</defs>
</svg>
