<svg width="42" height="42" viewBox="0 0 42 42" fill="none" xmlns="http://www.w3.org/2000/svg">
<g filter="url(#filter0_ii_213_5868)">
<path fill-rule="evenodd" clip-rule="evenodd" d="M9.62422 3.5C8.07782 3.5 6.82422 4.7536 6.82422 6.3V35.7C6.82422 37.2464 8.07782 38.5 9.62422 38.5H32.3742C33.9206 38.5 35.1742 37.2464 35.1742 35.7V6.3C35.1742 6.28881 35.1742 6.27764 35.174 6.26649V12.25L26.424 3.5H9.62422Z" fill="#FA4E4E"/>
</g>
<path d="M13 24.269V23.1261H29V24.269H13ZM13 21.1033V19.9604H29V21.1033H13ZM20.4286 33.6747V28.9627L18.0286 31.3627L17.2194 30.5535L21 26.7741L24.7806 30.5535L23.9714 31.3627L21.5714 28.9753V33.6747H20.4286ZM21 17.4553L17.2194 13.6747L18.0286 12.8655L20.4286 15.2655V10.5547H21.5714V15.2667L23.9714 12.8667L24.7806 13.6758L21 17.4553Z" fill="white"/>
<path d="M34.3548 11.4297H27.2461L35.1758 19.3594L35.1758 12.25L34.3548 11.4297Z" fill="url(#paint0_linear_213_5868)"/>
<path d="M29.2258 12.25L35.1758 12.25L26.4258 3.5L26.4258 9.45C26.4258 10.9964 27.6794 12.25 29.2258 12.25Z" fill="#FDB8B8"/>
<defs>
<filter id="filter0_ii_213_5868" x="6.82422" y="3.325" width="28.3496" height="35.35" filterUnits="userSpaceOnUse" color-interpolation-filters="sRGB">
<feFlood flood-opacity="0" result="BackgroundImageFix"/>
<feBlend mode="normal" in="SourceGraphic" in2="BackgroundImageFix" result="shape"/>
<feColorMatrix in="SourceAlpha" type="matrix" values="0 0 0 0 0 0 0 0 0 0 0 0 0 0 0 0 0 0 127 0" result="hardAlpha"/>
<feOffset dy="-0.35"/>
<feGaussianBlur stdDeviation="0.0875"/>
<feComposite in2="hardAlpha" operator="arithmetic" k2="-1" k3="1"/>
<feColorMatrix type="matrix" values="0 0 0 0 0 0 0 0 0 0 0 0 0 0 0 0 0 0 0.3 0"/>
<feBlend mode="normal" in2="shape" result="effect1_innerShadow_213_5868"/>
<feColorMatrix in="SourceAlpha" type="matrix" values="0 0 0 0 0 0 0 0 0 0 0 0 0 0 0 0 0 0 127 0" result="hardAlpha"/>
<feOffset dy="0.35"/>
<feGaussianBlur stdDeviation="0.0875"/>
<feComposite in2="hardAlpha" operator="arithmetic" k2="-1" k3="1"/>
<feColorMatrix type="matrix" values="0 0 0 0 1 0 0 0 0 1 0 0 0 0 1 0 0 0 0.3 0"/>
<feBlend mode="normal" in2="effect1_innerShadow_213_5868" result="effect2_innerShadow_213_5868"/>
</filter>
<linearGradient id="paint0_linear_213_5868" x1="29.0234" y1="9.65234" x2="36.9531" y2="17.582" gradientUnits="userSpaceOnUse">
<stop stop-opacity="0.2"/>
<stop offset="1" stop-opacity="0"/>
</linearGradient>
</defs>
</svg>
