<svg width="22" height="21" viewBox="0 0 22 21" fill="none" xmlns="http://www.w3.org/2000/svg">
<path d="M21.6433 3.63371L16.2955 6.92867L11.1676 0.0886718C11.1469 0.061142 11.1202 0.0387959 11.0894 0.0234047C11.0586 0.00801339 11.0247 0 10.9903 0C10.9559 0 10.922 0.00801339 10.8912 0.0234047C10.8604 0.0387959 10.8337 0.061142 10.8131 0.0886718L5.68786 6.92867L0.337325 3.63371C0.180684 3.53753 -0.0226753 3.66669 0.0020575 3.85081L2.1016 19.8062C2.13183 20.0233 2.3187 20.191 2.54129 20.191H19.4448C19.6647 20.191 19.8543 20.0261 19.8818 19.8062L21.9813 3.85081C22.0033 3.66669 21.8027 3.53753 21.6433 3.63371ZM10.9917 16.2117C9.28511 16.2117 7.89732 14.8239 7.89732 13.1174C7.89732 11.4108 9.28511 10.023 10.9917 10.023C12.6982 10.023 14.086 11.4108 14.086 13.1174C14.086 14.8239 12.6982 16.2117 10.9917 16.2117ZM10.9917 11.79C10.2607 11.79 9.6671 12.3836 9.6671 13.1174C9.6671 13.8484 10.2607 14.4447 10.9917 14.4447C11.7227 14.4447 12.3163 13.8511 12.3163 13.1174C12.3163 12.3864 11.7227 11.79 10.9917 11.79Z" fill="#FFC805"/>
</svg>
