<svg width="17" height="17" viewBox="0 0 17 17" fill="none" xmlns="http://www.w3.org/2000/svg">
<path d="M1.01322 15.6787H2.12574L12.9652 4.83931L11.8527 3.72679L1.01322 14.5662V15.6787ZM0 16.692V14.1386L13.3542 0.77224C13.4583 0.679699 13.5731 0.608098 13.6987 0.557437C13.8244 0.506776 13.9551 0.481445 14.0909 0.481445C14.2273 0.481445 14.359 0.502723 14.486 0.545278C14.6144 0.588509 14.7326 0.666189 14.8406 0.778319L15.9207 1.86449C16.0329 1.97257 16.1092 2.09078 16.1497 2.21912C16.1909 2.34813 16.2115 2.47715 16.2115 2.60617C16.2115 2.74329 16.1882 2.87467 16.1416 3.00031C16.0957 3.12527 16.0221 3.23977 15.9207 3.34379L2.55332 16.692H0ZM12.3988 4.29217L11.8527 3.72679L12.9652 4.83931L12.3988 4.29217Z" fill="black"/>
</svg>
