<svg width="52" height="52" viewBox="0 0 52 52" fill="none" xmlns="http://www.w3.org/2000/svg">
<g filter="url(#filter0_ii_181_5876)">
<path fill-rule="evenodd" clip-rule="evenodd" d="M11.2512 4.33301C9.70477 4.33301 8.45117 5.58661 8.45117 7.133V44.8663C8.45117 46.4127 9.70478 47.6663 11.2512 47.6663H40.7512C42.2976 47.6663 43.5512 46.4127 43.5512 44.8663V15.1661L32.7181 4.33301H11.2512Z" fill="#F4F4F4"/>
</g>
<path d="M42.5337 14.1514L33.7324 14.1514L43.5501 23.9691L43.5501 15.167L42.5337 14.1514Z" fill="url(#paint0_linear_181_5876)"/>
<path d="M35.5174 15.167L43.5508 15.167L32.7174 4.33366L32.7174 12.367C32.7174 13.9134 33.971 15.167 35.5174 15.167Z" fill="#C1C1C1"/>
<path d="M24.7644 28.0015L30.3097 22.3503L25.6513 18L17 26.9597L25.8596 35.6602L35.2695 25.9357" stroke="#86B918" stroke-width="3"/>
<defs>
<filter id="filter0_ii_181_5876" x="8.45117" y="4.15801" width="35.0996" height="43.683" filterUnits="userSpaceOnUse" color-interpolation-filters="sRGB">
<feFlood flood-opacity="0" result="BackgroundImageFix"/>
<feBlend mode="normal" in="SourceGraphic" in2="BackgroundImageFix" result="shape"/>
<feColorMatrix in="SourceAlpha" type="matrix" values="0 0 0 0 0 0 0 0 0 0 0 0 0 0 0 0 0 0 127 0" result="hardAlpha"/>
<feOffset dy="-0.35"/>
<feGaussianBlur stdDeviation="0.0875"/>
<feComposite in2="hardAlpha" operator="arithmetic" k2="-1" k3="1"/>
<feColorMatrix type="matrix" values="0 0 0 0 0 0 0 0 0 0 0 0 0 0 0 0 0 0 0.3 0"/>
<feBlend mode="normal" in2="shape" result="effect1_innerShadow_181_5876"/>
<feColorMatrix in="SourceAlpha" type="matrix" values="0 0 0 0 0 0 0 0 0 0 0 0 0 0 0 0 0 0 127 0" result="hardAlpha"/>
<feOffset dy="0.35"/>
<feGaussianBlur stdDeviation="0.0875"/>
<feComposite in2="hardAlpha" operator="arithmetic" k2="-1" k3="1"/>
<feColorMatrix type="matrix" values="0 0 0 0 1 0 0 0 0 1 0 0 0 0 1 0 0 0 0.3 0"/>
<feBlend mode="normal" in2="effect1_innerShadow_181_5876" result="effect2_innerShadow_181_5876"/>
</filter>
<linearGradient id="paint0_linear_181_5876" x1="35.9329" y1="11.9508" x2="45.7506" y2="21.7686" gradientUnits="userSpaceOnUse">
<stop stop-opacity="0.2"/>
<stop offset="1" stop-opacity="0"/>
</linearGradient>
</defs>
</svg>
