<svg width="27" height="25" viewBox="0 0 27 25" fill="none" xmlns="http://www.w3.org/2000/svg">
<path d="M1 12.3835C1 7.17754 1 4.57454 2.83 2.95664C4.6625 1.33984 7.6075 1.33984 13.5 1.33984C19.3925 1.33984 22.3387 1.33984 24.1687 2.95664C26 4.57564 26 7.17754 26 12.3835C26 17.5895 26 20.1925 24.1687 21.8093C22.34 23.4272 19.3925 23.4272 13.5 23.4272C7.6075 23.4272 4.66125 23.4272 2.83 21.8093C1 20.1936 1 17.5895 1 12.3835Z" stroke="#F8F8F8" stroke-width="1.8"/>
<path d="M18.5 10.1753C19.8807 10.1753 21 9.1864 21 7.96655C21 6.7467 19.8807 5.75781 18.5 5.75781C17.1193 5.75781 16 6.7467 16 7.96655C16 9.1864 17.1193 10.1753 18.5 10.1753Z" stroke="#F8F8F8" stroke-width="1.8"/>
<path d="M1 12.936L3.19 11.243C3.73892 10.819 4.44968 10.5951 5.1784 10.6167C5.90712 10.6382 6.59937 10.9035 7.115 11.359L12.4775 16.0967C12.8936 16.4643 13.4432 16.6904 14.0294 16.7353C14.6157 16.7801 15.2011 16.6408 15.6825 16.3419L16.0563 16.11C16.7507 15.679 17.5902 15.469 18.4373 15.5141C19.2844 15.5592 20.0892 15.8569 20.72 16.3585L24.75 19.5622" stroke="#F8F8F8" stroke-width="1.8" stroke-linecap="round"/>
</svg>
