<svg width="22" height="24" viewBox="0 0 22 24" fill="none" xmlns="http://www.w3.org/2000/svg">
<path d="M8.91274 20.767C8.96241 20.9518 9.048 21.125 9.16462 21.2767C9.28125 21.4284 9.42663 21.5556 9.59245 21.6511C9.75827 21.7466 9.94128 21.8085 10.131 21.8332C10.3208 21.858 10.5135 21.845 10.6983 21.7952L18.5876 19.682C18.7723 19.6325 18.9455 19.5471 19.0972 19.4306C19.2489 19.3141 19.3761 19.1689 19.4716 19.0031C19.5671 18.8374 19.629 18.6545 19.6537 18.4649C19.6785 18.2752 19.6656 18.0826 19.6158 17.8979L15.4855 2.53437C15.436 2.34961 15.3505 2.1764 15.2341 2.02466C15.1176 1.87291 14.9724 1.74559 14.8067 1.64998C14.641 1.55436 14.4582 1.49231 14.2685 1.46739C14.0788 1.44246 13.8861 1.45514 13.7014 1.5047L5.81061 3.61939C5.62603 3.6689 5.45302 3.75428 5.30145 3.87067C5.14987 3.98706 5.02271 4.13217 4.92723 4.29771C4.83175 4.46325 4.76981 4.64598 4.74496 4.83546C4.72011 5.02494 4.73283 5.21746 4.7824 5.40202L8.91274 20.767ZM11.077 23.2021C10.3305 23.4019 9.5353 23.2973 8.86598 22.9111C8.19666 22.525 7.70799 21.889 7.50732 21.1428L3.37697 5.78068C3.27743 5.41127 3.25171 5.02585 3.3013 4.64648C3.35088 4.26711 3.47479 3.90125 3.66594 3.56982C3.85708 3.2384 4.11171 2.94792 4.41524 2.71502C4.71877 2.48211 5.06526 2.31135 5.43486 2.21251L13.3227 0.0992729C14.069 -0.10059 14.864 0.00386752 15.5333 0.389708C16.2026 0.775549 16.6914 1.41123 16.8924 2.15716L21.0227 17.5222C21.122 17.8915 21.1476 18.2768 21.0979 18.656C21.0482 19.0352 20.9242 19.4009 20.7331 19.7321C20.542 20.0634 20.2874 20.3537 19.984 20.5865C19.6806 20.8193 19.3343 20.99 18.9648 21.0889L11.077 23.2021ZM6.55629 23.3012H6.77766C6.5569 22.9712 6.39206 22.607 6.28977 22.2234L6.17471 21.7938C5.86595 21.7099 5.59327 21.5269 5.39856 21.273C5.20386 21.0191 5.09791 20.7083 5.09698 20.3884V17.7814L3.63475 12.3461L3.64204 20.3898C3.64204 20.7725 3.71743 21.1513 3.8639 21.5048C4.01037 21.8583 4.22506 22.1795 4.49569 22.45C4.76632 22.7205 5.0876 22.935 5.44116 23.0813C5.79473 23.2276 6.17365 23.3014 6.55629 23.3012ZM2.18127 21.118C2.18127 21.3394 2.20166 21.5549 2.23952 21.7661L2.16088 21.7443C1.41446 21.5442 0.777991 21.056 0.391304 20.387C0.00461793 19.7179 -0.100654 18.9227 0.0986169 18.1761L2.17253 10.4135L2.1769 16.041L1.50695 18.5533C1.33219 19.2029 1.62638 19.867 2.17981 20.1903L2.18127 21.118ZM8.37388 5.09618C8.51732 5.09618 8.65936 5.12443 8.79188 5.17932C8.92441 5.23422 9.04482 5.31467 9.14625 5.4161C9.24768 5.51753 9.32814 5.63795 9.38303 5.77047C9.43792 5.903 9.46618 6.04503 9.46618 6.18848C9.46618 6.33192 9.43792 6.47396 9.38303 6.60648C9.32814 6.739 9.24768 6.85942 9.14625 6.96085C9.04482 7.06228 8.92441 7.14274 8.79188 7.19763C8.65936 7.25252 8.51732 7.28078 8.37388 7.28078C8.08418 7.28078 7.80635 7.16569 7.6015 6.96085C7.39666 6.756 7.28158 6.47817 7.28158 6.18848C7.28158 5.89878 7.39666 5.62095 7.6015 5.4161C7.80635 5.21126 8.08418 5.09618 8.37388 5.09618Z" fill="black"/>
</svg>
