<svg width="17" height="17" viewBox="0 0 17 17" fill="none" xmlns="http://www.w3.org/2000/svg">
<path d="M9.2589 12.5869H8.37001V7.69803H9.2589V12.5869ZM8.81445 6.43314C8.65919 6.43314 8.52942 6.38069 8.42512 6.2758C8.32023 6.17091 8.26779 6.04114 8.26779 5.88647C8.26779 5.73121 8.32023 5.60114 8.42512 5.49625C8.52942 5.39136 8.65919 5.33891 8.81445 5.33891C8.96971 5.33891 9.09949 5.39136 9.20379 5.49625C9.30867 5.60114 9.36112 5.73121 9.36112 5.88647C9.36112 6.04114 9.30867 6.17091 9.20379 6.2758C9.09949 6.38069 8.96971 6.43314 8.81445 6.43314ZM8.81179 16.5869C9.91756 16.5869 10.9576 16.3771 11.9318 15.9576C12.9054 15.5374 13.7525 14.9674 14.4731 14.2474C15.1937 13.528 15.7641 12.6817 16.1842 11.7087C16.6044 10.7357 16.8145 9.69595 16.8145 8.58958C16.8145 7.4838 16.6047 6.4438 16.1851 5.46958C15.765 4.49595 15.1949 3.64884 14.4749 2.92825C13.7555 2.20765 12.9093 1.63728 11.9362 1.21714C10.9632 0.796988 9.92349 0.586914 8.81712 0.586914C7.71134 0.586914 6.67134 0.796692 5.69712 1.21625C4.72349 1.6364 3.87638 2.20647 3.15579 2.92647C2.43519 3.64588 1.86482 4.4921 1.44467 5.46514C1.02453 6.43817 0.814453 7.47788 0.814453 8.58425C0.814453 9.69003 1.02423 10.73 1.44379 11.7042C1.86393 12.6779 2.43401 13.525 3.15401 14.2456C3.87342 14.9662 4.71964 15.5365 5.69268 15.9567C6.66571 16.3768 7.70542 16.5869 8.81179 16.5869ZM8.81445 15.698C6.82927 15.698 5.14779 15.0091 3.77001 13.6314C2.39223 12.2536 1.70334 10.5721 1.70334 8.58691C1.70334 6.60173 2.39223 4.92025 3.77001 3.54247C5.14779 2.16469 6.82927 1.4758 8.81445 1.4758C10.7996 1.4758 12.4811 2.16469 13.8589 3.54247C15.2367 4.92025 15.9256 6.60173 15.9256 8.58691C15.9256 10.5721 15.2367 12.2536 13.8589 13.6314C12.4811 15.0091 10.7996 15.698 8.81445 15.698Z" fill="black"/>
</svg>
