<svg width="256" height="181" viewBox="0 0 256 181" fill="none" xmlns="http://www.w3.org/2000/svg">
<path d="M4.28892 98.0022L58.1556 31.6139C60.8039 28.35 65.5906 27.8559 68.8471 30.5103L152.686 98.8497C155.562 101.194 155.997 105.432 153.658 108.315L99.1781 175.459C96.839 178.342 92.611 178.778 89.7348 176.434L5.28894 107.599C2.36794 105.218 1.92574 100.915 4.30127 97.987L4.28892 98.0022Z" fill="white"/>
<path fill-rule="evenodd" clip-rule="evenodd" d="M88.8821 177.482C90.3043 178.65 92.0863 179.288 93.9248 179.287C94.1988 179.287 94.4663 179.267 94.7664 179.228C96.8818 179.014 98.8243 177.962 100.161 176.305L154.679 109.127C156.021 107.474 156.652 105.354 156.435 103.234C156.217 101.113 155.168 99.1668 153.518 97.822L69.6766 29.4803C67.8433 27.9872 65.4929 27.2861 63.1435 27.5314C60.794 27.7767 58.6382 28.9483 57.1513 30.788L3.26635 97.1943C1.90618 98.8682 1.26568 101.015 1.48593 103.163C1.70618 105.31 2.76911 107.282 4.4406 108.643L88.8821 177.482ZM63.414 30.108H64.0663C65.5091 30.108 66.9077 30.6068 68.0261 31.5203L151.887 99.8686C154.199 101.757 154.549 105.165 152.67 107.486L98.1587 174.671C96.2704 176.985 92.8712 177.336 90.5521 175.455L6.08453 106.577C4.95058 105.653 4.22955 104.316 4.08027 102.859C3.93098 101.402 4.3657 99.9449 5.28865 98.8093L59.1736 32.403C60.2236 31.1 61.751 30.2733 63.414 30.108Z" fill="#202536"/>
<path d="M30.671 103.936C30.23 103.939 29.8274 103.685 29.6386 103.286C29.4498 102.886 29.5089 102.413 29.7903 102.073L55.6303 70.2231C56.0284 69.732 56.7484 69.6573 57.2384 70.0564C57.7283 70.4554 57.8028 71.177 57.4047 71.6681L31.5582 103.511C31.3428 103.781 31.016 103.938 30.671 103.936Z" fill="#202536"/>
<path d="M59.5374 86.523C59.0977 86.5228 58.6972 86.2694 58.5078 85.8716C58.3184 85.4738 58.3738 85.0023 58.6502 84.6595L76.6749 62.4282C77.0731 61.9371 77.793 61.8624 78.283 62.2614C78.773 62.6605 78.8475 63.3821 78.4494 63.8732L60.4246 86.1046C60.2062 86.37 59.8807 86.5235 59.5374 86.523V86.523Z" fill="#202536"/>
<path d="M39.5438 111.168C39.2824 111.168 39.029 111.078 38.8262 110.913C38.3357 110.513 38.2599 109.791 38.6566 109.297L54.7503 89.4985C55.1484 89.0074 55.8684 88.9327 56.3584 89.3318C56.8484 89.7308 56.9229 90.4524 56.5247 90.9435L40.431 110.775C40.2087 111.032 39.8832 111.176 39.5438 111.168V111.168Z" fill="#202536"/>
<path d="M48.4145 118.4C47.9747 118.396 47.5755 118.141 47.3867 117.743C47.1978 117.345 47.2524 116.874 47.5273 116.53L85.5469 69.6806C85.7915 69.3287 86.2118 69.1435 86.6359 69.2007C87.06 69.2579 87.4165 69.548 87.5595 69.9522C87.7026 70.3564 87.6081 70.8069 87.3148 71.1191L49.2952 117.975C49.0819 118.244 48.7575 118.401 48.4145 118.4Z" fill="#202536"/>
<path d="M90.1469 85.1303C89.7071 85.1269 89.308 84.8719 89.1191 84.4738C88.9302 84.0757 88.9848 83.6044 89.2597 83.2603L94.4134 76.9047C94.6709 76.587 95.078 76.4312 95.4813 76.4959C95.8845 76.5606 96.2227 76.836 96.3685 77.2184C96.5142 77.6008 96.4453 78.0321 96.1878 78.3498L91.0276 84.7053C90.8143 84.9744 90.4899 85.131 90.1469 85.1303Z" fill="#202536"/>
<path d="M57.2815 125.624C57.0197 125.627 56.7653 125.537 56.5639 125.369C56.0763 124.97 56.0033 124.25 56.4008 123.761L85.4048 88.0141C85.6623 87.6964 86.0694 87.5405 86.4726 87.6052C86.8759 87.6699 87.2141 87.9454 87.3599 88.3278C87.5056 88.7102 87.4367 89.1414 87.1792 89.4591L58.1687 125.206C57.9503 125.471 57.6248 125.625 57.2815 125.624V125.624Z" fill="#202536"/>
<path d="M66.1527 132.857C65.7129 132.856 65.3124 132.603 65.123 132.205C64.9336 131.807 64.989 131.336 65.2655 130.993L100.708 87.315C101.114 86.8566 101.809 86.8006 102.283 87.1882C102.757 87.5757 102.842 88.2689 102.476 88.7601L67.066 132.438C66.8418 132.711 66.505 132.865 66.1527 132.857Z" fill="#202536"/>
<path d="M61.2351 34.9206C61.052 34.9219 60.8768 34.846 60.7523 34.7114C60.6339 34.5835 60.5714 34.4134 60.5787 34.239C60.5861 34.0646 60.6627 33.9004 60.7915 33.7829C62.3747 32.3878 64.6567 32.127 66.5127 33.1291C66.7274 33.2312 66.8697 33.4423 66.8842 33.68C66.8987 33.9178 66.783 34.1446 66.5822 34.2721C66.3814 34.3996 66.1274 34.4076 65.919 34.2929C64.5529 33.5377 62.8624 33.7123 61.6787 34.731C61.5604 34.8487 61.4017 34.9165 61.2351 34.9206V34.9206Z" fill="#202536"/>
<path d="M68.2629 41.9619L148.5 15.0063C152.821 13.5545 157.499 15.8888 158.947 20.2202L193.595 123.829C194.49 126.506 193.05 129.404 190.379 130.302L105.41 158.847C102.739 159.745 99.8471 158.302 98.9517 155.624L63.8875 50.7693C62.6693 47.1262 64.6282 43.183 68.2629 41.9619Z" fill="white"/>
<path fill-rule="evenodd" clip-rule="evenodd" d="M100.877 159.789C101.765 160.223 102.74 160.447 103.728 160.443C104.422 160.445 105.111 160.334 105.77 160.116L190.766 131.588C192.378 131.048 193.709 129.888 194.467 128.364C195.224 126.839 195.345 125.075 194.804 123.461L160.164 19.8495C158.479 14.8384 153.068 12.1369 148.062 13.8078L67.8222 40.7601C63.4989 42.2048 61.1625 46.8885 62.6033 51.2219L97.6611 156.082C98.1959 157.699 99.3541 159.034 100.877 159.789ZM148.865 16.3055C149.575 16.0633 150.32 15.9397 151.07 15.9393V15.9066C154.063 15.9192 156.715 17.8454 157.659 20.6929L192.299 124.304C192.962 126.297 191.892 128.453 189.905 129.123L104.935 157.664C102.946 158.329 100.796 157.256 100.127 155.264L65.0692 50.4044C64.087 47.4455 65.6765 44.2476 68.6246 43.2512L148.865 16.3055Z" fill="#202536"/>
<path d="M132.843 46.252C132.282 46.2539 131.803 45.8476 131.712 45.2931C131.622 44.7387 131.946 44.2001 132.478 44.0223L144.625 39.9422C145.223 39.7418 145.87 40.0652 146.07 40.6647C146.27 41.2642 145.947 41.9126 145.349 42.113L133.202 46.1866C133.087 46.2304 132.966 46.2526 132.843 46.252V46.252Z" fill="#202536"/>
<path d="M87.8566 61.3822C87.296 61.3842 86.817 60.9778 86.7261 60.4234C86.6353 59.8689 86.9595 59.3304 87.4913 59.1525L126.326 46.0753C126.721 45.9106 127.174 45.9805 127.501 46.2564C127.827 46.5322 127.973 46.9679 127.878 47.3855C127.784 47.803 127.464 48.1326 127.05 48.2396L88.2154 61.2841C88.1031 61.3392 87.9813 61.3725 87.8566 61.3822V61.3822Z" fill="#202536"/>
<path d="M121.532 62.1348C120.972 62.1336 120.496 61.7263 120.407 61.1728C120.318 60.6193 120.642 60.0826 121.173 59.9052L148.259 50.8099C148.839 50.6599 149.436 50.9848 149.626 51.5541C149.817 52.1234 149.536 52.7434 148.983 52.9742L121.897 62.076C121.779 62.1146 121.656 62.1345 121.532 62.1348V62.1348Z" fill="#202536"/>
<path d="M91.4848 72.2236C90.9255 72.2223 90.4494 71.815 90.3604 71.2615C90.2713 70.708 90.5955 70.1714 91.126 69.9939L115.342 61.8729C115.94 61.6707 116.588 61.9927 116.79 62.5922C116.992 63.1916 116.67 63.8415 116.072 64.0437L91.8567 72.1647C91.7368 72.2046 91.6112 72.2245 91.4848 72.2236V72.2236Z" fill="#202536"/>
<path d="M95.1177 83.0913C94.5583 83.09 94.0823 82.6827 93.9932 82.1293C93.9041 81.5758 94.2283 81.0391 94.7589 80.8616L151.873 61.6708C152.471 61.4685 153.119 61.7906 153.321 62.39C153.523 62.9895 153.202 63.6394 152.604 63.8416L95.4699 83.0325C95.3561 83.0698 95.2374 83.0896 95.1177 83.0913V83.0913Z" fill="#202536"/>
<path d="M148.136 77.369C147.575 77.371 147.096 76.9647 147.005 76.4102C146.915 75.8558 147.239 75.3172 147.771 75.1394L155.521 72.5239C155.908 72.3943 156.334 72.4813 156.639 72.7524C156.945 73.0234 157.083 73.4371 157.002 73.8378C156.92 74.2384 156.632 74.5651 156.245 74.6947L148.501 77.3102C148.383 77.3488 148.26 77.3687 148.136 77.369V77.369Z" fill="#202536"/>
<path d="M98.7517 93.9579C98.2611 93.9535 97.8268 93.6388 97.6688 93.1733C97.572 92.8854 97.5941 92.5708 97.7301 92.2993C97.8661 92.0279 98.1048 91.8223 98.3929 91.7282L141.977 77.0751C142.37 76.9165 142.818 76.9887 143.141 77.2628C143.464 77.5368 143.61 77.9676 143.519 78.382C143.428 78.7964 143.116 79.1265 142.708 79.2394L99.117 93.886C98.9998 93.929 98.8765 93.9533 98.7517 93.9579V93.9579Z" fill="#202536"/>
<path d="M102.386 104.818C101.825 104.82 101.346 104.414 101.255 103.86C101.165 103.305 101.489 102.767 102.021 102.589L155.279 84.7056C155.666 84.5759 156.093 84.663 156.398 84.934C156.704 85.205 156.842 85.6188 156.76 86.0194C156.679 86.4201 156.39 86.7467 156.003 86.8764L102.751 104.76C102.633 104.798 102.51 104.818 102.386 104.818V104.818Z" fill="#202536"/>
<path d="M154.796 21.1567C154.56 21.1563 154.343 21.0289 154.228 20.8233C153.609 19.6205 152.306 18.9336 150.966 19.1036C150.733 19.141 150.498 19.0509 150.349 18.8673C150.2 18.6836 150.16 18.4344 150.245 18.2134C150.329 17.9924 150.524 17.8332 150.757 17.7959C152.634 17.5417 154.469 18.4864 155.357 20.1628C155.443 20.3144 155.466 20.4943 155.419 20.6626C155.373 20.8309 155.261 20.9735 155.109 21.0586C155.014 21.1158 154.906 21.1494 154.796 21.1567Z" fill="#202536"/>
<path d="M182.897 26.8094L249.504 79.1185C253.092 81.936 253.721 87.135 250.91 90.7308L183.669 176.746C181.932 178.968 178.725 179.358 176.507 177.617L105.972 122.223C103.755 120.481 103.365 117.267 105.103 115.044L173.153 27.9948C174.288 26.5424 175.953 25.6016 177.78 25.3793C179.607 25.157 181.448 25.6714 182.897 26.8094Z" fill="white"/>
<path fill-rule="evenodd" clip-rule="evenodd" d="M175.705 178.646C176.83 179.533 178.22 180.015 179.651 180.013C181.623 180.019 183.486 179.111 184.701 177.554L251.913 91.5388C253.477 89.5386 254.183 86.9976 253.878 84.4752C253.572 81.9527 252.278 79.6554 250.282 78.0888L183.676 25.7798C180.091 22.9657 174.909 23.5949 172.097 27.1856L104.075 114.234C101.899 117.028 102.386 121.059 105.165 123.251L175.705 178.646ZM174.178 28.8006C175.248 27.4326 176.886 26.6343 178.62 26.6363C179.875 26.623 181.097 27.0329 182.091 27.8002L248.704 80.1092C250.163 81.2494 251.108 82.9258 251.33 84.767C251.551 86.6081 251.031 88.4618 249.884 89.9172L182.646 175.933C182.026 176.729 181.116 177.246 180.116 177.369C179.116 177.492 178.108 177.21 177.316 176.587L106.783 121.191C105.134 119.895 104.842 117.506 106.13 115.849L174.178 28.8006Z" fill="#202536"/>
<path d="M225.942 91.6693C225.687 91.6689 225.439 91.5838 225.237 91.4274L215.152 83.5091C214.83 83.2568 214.667 82.8517 214.724 82.4464C214.781 82.041 215.05 81.6971 215.429 81.544C215.808 81.391 216.239 81.4521 216.561 81.7044L226.64 89.6227C227.024 89.9234 227.176 90.436 227.017 90.8983C226.858 91.3606 226.423 91.6704 225.935 91.6693H225.942Z" fill="#202536"/>
<path d="M218.889 100.686C218.636 100.685 218.39 100.6 218.191 100.444L195.704 82.7897C195.466 82.6038 195.311 82.3302 195.274 82.0295C195.237 81.7288 195.322 81.4258 195.509 81.1877C195.899 80.6919 196.615 80.6044 197.113 80.9915L219.594 98.6458C219.973 98.9479 220.121 99.4571 219.962 99.9159C219.804 100.375 219.374 100.683 218.889 100.686V100.686Z" fill="#202536"/>
<path d="M191.544 79.2071C191.288 79.2081 191.04 79.1229 190.839 78.9651L170.792 63.2005C170.471 62.9482 170.308 62.5431 170.365 62.1378C170.422 61.7324 170.691 61.3885 171.069 61.2354C171.448 61.0824 171.88 61.1435 172.201 61.3958L192.281 77.167C192.66 77.4691 192.808 77.9783 192.649 78.4371C192.491 78.896 192.061 79.2046 191.576 79.2071H191.544Z" fill="#202536"/>
<path d="M211.845 109.709C211.59 109.71 211.342 109.625 211.141 109.467L163.707 72.1972C163.367 71.9518 163.188 71.539 163.242 71.1221C163.295 70.7052 163.573 70.3513 163.964 70.2004C164.356 70.0494 164.798 70.1257 165.117 70.3991L212.55 107.669C212.934 107.97 213.086 108.483 212.927 108.945C212.768 109.407 212.333 109.717 211.845 109.716V109.709Z" fill="#202536"/>
<path d="M204.792 118.727C204.537 118.728 204.289 118.642 204.088 118.485L197.655 113.437C197.334 113.185 197.171 112.779 197.228 112.374C197.285 111.969 197.554 111.625 197.933 111.472C198.311 111.319 198.743 111.38 199.065 111.632L205.497 116.687C205.876 116.989 206.024 117.498 205.865 117.957C205.707 118.415 205.277 118.724 204.792 118.727V118.727Z" fill="#202536"/>
<path d="M193.546 109.899C193.291 109.9 193.043 109.815 192.842 109.657L156.655 81.2406C156.158 80.8506 156.071 80.1304 156.46 79.6321C156.849 79.1337 157.567 79.0459 158.065 79.4359L194.277 107.853C194.662 108.154 194.813 108.666 194.654 109.128C194.495 109.591 194.06 109.9 193.573 109.899H193.546Z" fill="#202536"/>
<path d="M194.524 125.225C194.267 125.227 194.018 125.139 193.819 124.977L149.602 90.2567C149.138 89.8579 149.069 89.1629 149.447 88.6807C149.825 88.1985 150.515 88.1005 151.011 88.4585L195.228 123.179C195.613 123.479 195.765 123.992 195.606 124.454C195.446 124.917 195.012 125.226 194.524 125.225V125.225Z" fill="#202536"/>
<path d="M248.423 88.0933C248.319 88.0912 248.217 88.0666 248.123 88.0213C247.804 87.8533 247.682 87.4582 247.849 87.1386C248.494 85.9584 248.352 84.5026 247.49 83.4704C247.245 83.205 247.261 82.7908 247.526 82.5452C247.791 82.2997 248.204 82.3158 248.449 82.5812C249.683 84.0196 249.903 86.0715 249.004 87.7402C248.891 87.9575 248.667 88.0938 248.423 88.0933V88.0933Z" fill="#202536"/>
<path d="M163.021 9.40681C162.73 9.40484 162.476 9.21037 162.397 8.92989C162.319 8.64942 162.435 8.35063 162.682 8.19716L166.022 6.13096C166.327 5.94335 166.725 6.03668 166.916 6.34019C167.008 6.48751 167.037 6.66549 166.998 6.8348C166.959 7.0041 166.854 7.15082 166.707 7.24252L163.367 9.30873C163.263 9.37322 163.143 9.4072 163.021 9.40681Z" fill="#685CE1"/>
<path d="M158.932 7.11201C158.703 7.1114 158.491 6.99073 158.374 6.794C158.256 6.59726 158.25 6.35322 158.358 6.15083L160.426 2.22765C160.531 2.01509 160.743 1.8763 160.979 1.865C161.216 1.8537 161.44 1.97167 161.564 2.17324C161.689 2.37481 161.695 2.62836 161.58 2.83574L159.512 6.75892C159.4 6.97627 159.176 7.11252 158.932 7.11201Z" fill="#685CE1"/>
<path d="M154.483 5.49036C154.149 5.49239 153.867 5.2412 153.83 4.90842L153.367 0.723699C153.329 0.366615 153.585 0.0455 153.941 0.00444919C154.113 -0.015784 154.286 0.0335256 154.422 0.141488C154.558 0.24945 154.646 0.407182 154.665 0.579849L155.122 4.76457C155.16 5.12166 154.904 5.44277 154.548 5.48382L154.483 5.49036Z" fill="#685CE1"/>
<path d="M205.941 120.884C205.679 120.884 205.443 120.727 205.341 120.485C204.154 117.684 201.812 115.536 198.922 114.601C198.603 114.474 198.436 114.121 198.541 113.793C198.646 113.465 198.986 113.275 199.32 113.358C202.574 114.407 205.211 116.826 206.541 119.982C206.682 120.314 206.527 120.697 206.196 120.839C206.114 120.869 206.028 120.885 205.941 120.884V120.884Z" fill="#202536"/>
<path d="M152.153 137.551C151.289 136.863 151.145 135.605 151.833 134.74L158.797 125.986C159.484 125.121 160.742 124.978 161.607 125.666L197.295 154.053C198.159 154.741 198.303 155.999 197.615 156.863L190.651 165.618C189.964 166.482 188.705 166.626 187.841 165.938L152.153 137.551Z" fill="#4876F9"/>
<path d="M161.09 141.39L163.887 133.776L165.049 134.7L162.496 141.567L161.919 141.108L168.105 137.131L169.138 137.953L166.603 144.833L166.043 144.388L172.203 140.391L173.27 141.24L166.48 145.677L165.292 144.732L167.557 138.509L167.867 138.755L162.287 142.342L161.09 141.39ZM171.045 149.407C170.574 149.032 170.235 148.599 170.027 148.106C169.825 147.607 169.758 147.095 169.829 146.57C169.9 146.046 170.115 145.557 170.476 145.103C170.841 144.644 171.269 144.324 171.76 144.143C172.256 143.956 172.767 143.908 173.294 143.999C173.821 144.091 174.32 144.324 174.79 144.698C175.267 145.077 175.609 145.513 175.816 146.006C176.029 146.503 176.1 147.009 176.028 147.524C175.962 148.043 175.744 148.535 175.374 149C175.014 149.453 174.586 149.773 174.09 149.96C173.601 150.152 173.087 150.202 172.55 150.112C172.023 150.021 171.521 149.786 171.045 149.407ZM171.777 148.486C172.041 148.696 172.322 148.825 172.62 148.875C172.918 148.925 173.211 148.886 173.5 148.759C173.794 148.637 174.057 148.43 174.29 148.137C174.527 147.838 174.67 147.535 174.718 147.227C174.777 146.917 174.749 146.623 174.633 146.344C174.518 146.065 174.331 145.823 174.073 145.617C173.809 145.407 173.528 145.277 173.23 145.228C172.938 145.183 172.645 145.222 172.351 145.344C172.062 145.46 171.798 145.668 171.561 145.966C171.328 146.259 171.185 146.562 171.132 146.876C171.079 147.19 171.107 147.484 171.217 147.759C171.332 148.038 171.519 148.28 171.777 148.486ZM174.661 152.185L178.318 147.588L179.342 148.403L178.336 149.668L178.51 149.202C178.894 149.002 179.296 148.938 179.717 149.01C180.143 149.087 180.577 149.301 181.019 149.652L180.204 150.677C180.167 150.629 180.129 150.589 180.089 150.557C180.053 150.519 180.015 150.484 179.975 150.452C179.568 150.128 179.147 149.991 178.715 150.04C178.286 150.084 177.885 150.341 177.511 150.811L175.737 153.041L174.661 152.185ZM180.176 156.67C179.734 156.319 179.413 155.904 179.212 155.426C179.022 154.946 178.965 154.452 179.043 153.942C179.121 153.432 179.349 152.939 179.728 152.462C180.107 151.986 180.536 151.653 181.015 151.462C181.494 151.272 181.987 151.219 182.492 151.302C183.003 151.39 183.48 151.61 183.921 151.961C184.306 152.267 184.582 152.627 184.749 153.041C184.921 153.449 184.959 153.897 184.863 154.382C184.767 154.868 184.504 155.381 184.075 155.92C183.651 156.454 183.213 156.828 182.762 157.041C182.316 157.248 181.873 157.317 181.432 157.247C180.99 157.177 180.572 156.985 180.176 156.67ZM181.038 155.852C181.296 156.057 181.571 156.182 181.863 156.227C182.161 156.277 182.457 156.24 182.751 156.118C183.051 156.001 183.317 155.795 183.55 155.503C183.787 155.204 183.927 154.899 183.97 154.586C184.023 154.272 183.992 153.975 183.877 153.696C183.767 153.422 183.583 153.182 183.325 152.976C183.067 152.771 182.788 152.643 182.491 152.594C182.198 152.549 181.902 152.585 181.603 152.703C181.313 152.819 181.05 153.027 180.812 153.325C180.58 153.618 180.437 153.921 180.384 154.235C180.337 154.554 180.368 154.85 180.477 155.125C180.593 155.404 180.779 155.646 181.038 155.852ZM181.747 157.822L182.61 156.737L183.626 155.549L184.512 154.258L186.785 151.4L187.853 152.249L182.772 158.637L181.747 157.822Z" fill="white"/>
<path d="M90.065 51.9906C89.0238 52.3593 87.8808 51.8141 87.5121 50.7729L83.778 40.2281C83.4093 39.1869 83.9544 38.0439 84.9956 37.6752L127.981 22.4532C129.022 22.0845 130.165 22.6297 130.534 23.6709L134.268 34.2157C134.637 35.2569 134.092 36.3999 133.051 36.7686L90.065 51.9906Z" fill="#FA4E4E"/>
<path d="M101.804 45.004L99.2336 37.7456L102.22 36.6881C102.863 36.4605 103.449 36.3695 103.979 36.4154C104.515 36.4587 104.977 36.6299 105.363 36.9289C105.748 37.2279 106.036 37.6435 106.224 38.1758C106.413 38.7081 106.451 39.2118 106.339 39.6871C106.227 40.1623 105.977 40.5856 105.587 40.957C105.204 41.326 104.691 41.6243 104.048 41.8519L101.809 42.645L102.186 41.7996L103.152 44.5266L101.804 45.004ZM102.238 41.9447L101.405 41.5044L103.582 40.7333C104.177 40.5228 104.579 40.2405 104.788 39.8864C105.001 39.5229 105.027 39.1131 104.866 38.6568C104.702 38.1937 104.424 37.8915 104.031 37.7504C103.646 37.6068 103.156 37.6402 102.562 37.8507L100.384 38.6218L100.75 37.7453L102.238 41.9447ZM109.33 42.3388L106.76 35.0805L109.933 33.9569C110.721 33.6778 111.466 33.5851 112.168 33.6788C112.87 33.7724 113.483 34.0301 114.005 34.4518C114.528 34.8735 114.919 35.4507 115.179 36.1834C115.436 36.9093 115.495 37.604 115.357 38.2676C115.216 38.9243 114.902 39.51 114.415 40.0246C113.928 40.5393 113.291 40.9362 112.503 41.2152L109.33 42.3388ZM110.274 40.7209L112.037 40.0967C112.583 39.9033 113.016 39.6331 113.337 39.2862C113.664 38.9369 113.869 38.5376 113.951 38.0884C114.04 37.6368 113.997 37.1622 113.82 36.6644C113.642 36.1598 113.377 35.7635 113.026 35.4754C112.679 35.178 112.269 34.9966 111.795 34.9312C111.327 34.8634 110.82 34.9261 110.274 35.1195L108.512 35.7438L110.274 40.7209ZM117.846 34.9121L121.465 33.6306L121.869 34.7712L118.25 36.0527L117.846 34.9121ZM119.348 38.7912L118 39.2685L115.43 32.0102L120.729 30.1339L121.129 31.2641L117.178 32.6631L119.348 38.7912Z" fill="white"/>
<path d="M15.7142 109.664C14.309 111.369 11.7881 111.612 10.0834 110.207L4.53819 105.636C2.83357 104.23 2.59082 101.709 3.996 100.005L30.4577 67.9042C31.8628 66.1995 34.3838 65.9568 36.0885 67.362L41.6337 71.9331C43.3383 73.3383 43.5811 75.8593 42.1759 77.5639L15.7142 109.664Z" fill="#32BD7A"/>
<path d="M20.855 99.5352L19.6134 94.1562L20.427 94.8634L15.1448 94.3673L16.2057 93.1469L20.1215 93.5047L19.6968 94.01L18.7748 90.1915L19.7923 89.0209L20.9751 94.1155L20.1947 93.4372L25.7335 93.9231L24.651 95.1684L20.5064 94.7721L20.9322 94.2823L21.9231 98.3065L20.855 99.5352ZM26.3752 93.1849L20.564 88.1333L21.5021 87.054L26.4002 91.3119L29.0415 88.2734L29.9547 89.0672L26.3752 93.1849ZM32.3813 86.4434C31.9868 86.8972 31.5455 87.2764 31.0573 87.5808C30.5637 87.8804 30.1086 88.063 29.6922 88.1285L29.1784 87.026C29.5631 86.9523 29.9655 86.7969 30.3856 86.5596C30.8056 86.3223 31.172 86.0237 31.4847 85.664C31.7493 85.3596 31.9302 85.0844 32.0274 84.8385C32.1245 84.5926 32.1563 84.3773 32.1225 84.1925C32.0833 84.0029 31.9917 83.8456 31.8478 83.7205C31.6707 83.5665 31.4743 83.5075 31.2584 83.5434C31.0371 83.5745 30.807 83.6659 30.5681 83.8178C30.3285 83.9593 30.0727 84.1305 29.8009 84.3315C29.5339 84.5269 29.2561 84.7178 28.9677 84.9043C28.6785 85.0805 28.3868 85.2205 28.0926 85.3242C27.7976 85.4176 27.4952 85.4413 27.1853 85.3954C26.8754 85.3495 26.5655 85.1919 26.2555 84.9225C25.9401 84.6482 25.7244 84.315 25.6086 83.9229C25.4921 83.5204 25.5055 83.0802 25.6489 82.6023C25.7915 82.1141 26.0937 81.6044 26.5556 81.0731C26.8587 80.7244 27.2036 80.417 27.5905 80.1508C27.9773 79.8846 28.3644 79.6964 28.7517 79.5862L29.2943 80.6554C28.9133 80.7808 28.5665 80.9506 28.254 81.1648C27.9359 81.3742 27.6662 81.6062 27.4449 81.8608C27.1851 82.1596 27.0094 82.4344 26.9178 82.6851C26.831 82.9303 26.8072 83.1477 26.8464 83.3373C26.8905 83.5213 26.9872 83.6783 27.1367 83.8082C27.3138 83.9622 27.5106 84.0264 27.7271 84.0008C27.9429 83.965 28.1679 83.8739 28.402 83.7275C28.6409 83.5757 28.899 83.4017 29.1764 83.2056C29.4482 83.0046 29.726 82.8137 30.0096 82.6327C30.298 82.4462 30.587 82.3038 30.8764 82.2056C31.1706 82.1019 31.4703 82.0757 31.7754 82.1271C32.0853 82.173 32.3924 82.3283 32.6968 82.5929C33.0068 82.8623 33.22 83.1983 33.3365 83.6008C33.4523 83.993 33.4389 84.4331 33.2963 84.9213C33.1482 85.4047 32.8432 85.9121 32.3813 86.4434Z" fill="white"/>
</svg>
