<svg width="193" height="172" viewBox="0 0 193 172" fill="none" xmlns="http://www.w3.org/2000/svg">
<path d="M48.8445 94.7289C48.3153 95.1508 47.5615 95.1201 47.0655 94.6564C46.5696 94.1927 46.4782 93.4332 46.85 92.8641L52.2509 84.5481C52.5212 84.1338 52.9893 83.8977 53.4788 83.9287C53.9683 83.9598 54.4049 84.2532 54.6241 84.6985C54.8432 85.1438 54.8118 85.6733 54.5415 86.0875L49.1467 94.3987C49.0636 94.5241 48.9616 94.6356 48.8445 94.7289Z" fill="#202536"/>
<path d="M44.3568 20.1851L146.075 20.4442C151.554 20.4582 155.994 24.9729 155.992 30.5282L155.956 163.414C155.955 166.848 153.208 169.625 149.822 169.617L42.1042 169.342C38.7174 169.334 35.9726 166.543 35.9735 163.108L36.0106 28.6243C36.0113 26.3805 36.8909 24.2308 38.4561 22.6481C40.0214 21.0655 42.1439 20.1795 44.3568 20.1851Z" fill="white"/>
<path fill-rule="evenodd" clip-rule="evenodd" d="M149.825 171.209C151.546 171.217 153.218 170.637 154.571 169.563C156.441 168.09 157.534 165.824 157.532 163.421L157.541 30.555C157.542 27.4649 156.332 24.4983 154.177 22.3082C152.023 20.118 149.1 18.8837 146.052 18.8769L44.3349 18.6172C38.8605 18.6051 34.4212 23.0918 34.4153 28.6426L34.4043 163.105C34.4097 167.416 37.8519 170.918 42.1027 170.937L149.825 171.209ZM37.5795 28.6296C37.5805 26.5158 38.541 24.5223 40.1838 23.2247C41.3611 22.272 42.8211 21.7492 44.329 21.7403L146.053 21.9951C148.277 21.9952 150.411 22.8949 151.982 24.4946C153.553 26.0944 154.432 28.2622 154.422 30.5174L154.388 163.403C154.391 164.631 153.912 165.808 153.056 166.675C152.201 167.543 151.039 168.028 149.828 168.024L42.1113 167.747C39.5924 167.739 37.5499 165.666 37.5438 163.112L37.5795 28.6296Z" fill="#202536"/>
<path d="M133.059 50.1403C132.817 50.331 132.52 50.435 132.213 50.4362L116.813 50.3991C116.322 50.3982 115.868 50.1317 115.622 49.7001C115.377 49.2685 115.377 48.7373 115.622 48.3067C115.867 47.8761 116.321 47.6114 116.812 47.6123L132.206 47.6543C132.793 47.6544 133.315 48.0324 133.506 48.5951C133.697 49.1577 133.515 49.7806 133.053 50.1452L133.059 50.1403Z" fill="#202536"/>
<path d="M133.052 64.0715C132.812 64.2608 132.517 64.3632 132.213 64.3626L97.8762 64.2804C97.5129 64.281 97.164 64.1347 96.9068 63.8738C96.6497 63.6129 96.5056 63.259 96.5064 62.8906C96.5095 62.1224 97.1226 61.5017 97.8802 61.4999L132.211 61.5869C132.793 61.5925 133.309 61.9701 133.499 62.529C133.688 63.0878 133.509 63.7062 133.052 64.0715Z" fill="#202536"/>
<path d="M91.2851 63.9631C91.0442 64.1554 90.7463 64.2597 90.4394 64.259L59.8092 64.161C59.3183 64.16 58.8645 63.8936 58.6189 63.462C58.3733 63.0304 58.3732 62.4992 58.6185 62.0686C58.8639 61.6379 59.3175 61.3732 59.8084 61.3742L90.4743 61.454C91.0566 61.4596 91.5729 61.8372 91.7622 62.3961C91.9515 62.9549 91.7726 63.5733 91.3159 63.9386L91.2851 63.9631Z" fill="#202536"/>
<path d="M133.056 78.0043C132.815 78.1966 132.517 78.3009 132.21 78.3002L59.7592 78.0975C59.2555 78.1172 58.7811 77.8553 58.5235 77.4152C58.2659 76.9752 58.2667 76.428 58.5256 75.9899C58.7844 75.5518 59.2596 75.2934 59.7633 75.3169L132.215 75.5197C132.801 75.5198 133.323 75.8978 133.515 76.4605C133.706 77.0231 133.524 77.646 133.061 78.0105L133.056 78.0043Z" fill="#202536"/>
<path d="M133.049 91.9394C132.808 92.1318 132.51 92.236 132.203 92.2354L122.383 92.2139C121.892 92.2129 121.438 91.9465 121.193 91.5149C120.947 91.0833 120.947 90.5521 121.192 90.1215C121.438 89.6908 121.891 89.4261 122.382 89.4271L132.207 89.4548C132.79 89.4604 133.306 89.838 133.495 90.3969C133.684 90.9557 133.506 91.5741 133.049 91.9394Z" fill="#202536"/>
<path d="M115.876 91.8999C115.635 92.0922 115.337 92.1965 115.03 92.1958L59.7698 92.0568C59.0109 92.0553 58.3955 91.4302 58.3952 90.6607C58.395 89.8911 59.0101 89.2685 59.769 89.27L115.054 89.3895C115.641 89.3896 116.163 89.7676 116.354 90.3303C116.546 90.8929 116.363 91.5158 115.901 91.8804L115.876 91.8999Z" fill="#202536"/>
<path d="M128.136 105.867C127.894 106.06 127.594 106.163 127.286 106.156L59.7637 105.99C59.0291 105.955 58.4504 105.34 58.4514 104.594C58.4525 103.849 59.033 103.238 59.7678 103.209L127.29 103.376C127.876 103.376 128.398 103.754 128.59 104.317C128.781 104.879 128.599 105.502 128.136 105.867Z" fill="#202536"/>
<path d="M151.69 29.8637C151.59 29.9397 151.475 29.9928 151.352 30.0196C150.926 30.0974 150.518 29.8103 150.44 29.3783C150.178 27.763 148.967 26.4734 147.388 26.1289C146.96 26.0579 146.669 25.6486 146.738 25.2146C146.807 24.7807 147.21 24.4864 147.638 24.5574C149.869 25.0127 151.595 26.8155 151.978 29.09C152.032 29.3826 151.921 29.6812 151.69 29.8637Z" fill="#202536"/>
<path d="M62.6111 50.0929C62.1144 49.9264 61.8107 49.4182 61.8945 48.8936C61.9783 48.369 62.4248 47.9832 62.9481 47.9833L101.193 47.9086C101.591 47.8793 101.972 48.078 102.179 48.4235C102.387 48.769 102.387 49.2035 102.179 49.5496C101.972 49.8957 101.591 50.0954 101.193 50.0672L62.9577 50.1126C62.842 50.1283 62.7244 50.1216 62.6111 50.0929V50.0929Z" fill="#202536"/>
<rect width="192.264" height="154.171" fill="url(#paint0_linear_152_5799)" fill-opacity="0.1"/>
<path fill-rule="evenodd" clip-rule="evenodd" d="M182.385 146.628L182.385 123.647C182.385 122.311 183.469 121.228 184.804 121.228C186.14 121.228 187.223 122.311 187.223 123.647V147.837C187.223 148.046 187.197 148.249 187.147 148.442C187.197 148.635 187.223 148.838 187.223 149.047C187.223 150.383 186.14 151.466 184.804 151.466H160.614C159.278 151.466 158.195 150.383 158.195 149.047C158.195 147.711 159.278 146.628 160.614 146.628H182.385Z" fill="#2997FF"/>
<path fill-rule="evenodd" clip-rule="evenodd" d="M182.385 7.25592L182.385 29.0273C182.385 30.3633 183.469 31.4463 184.804 31.4463C186.14 31.4463 187.223 30.3633 187.223 29.0273V4.83729C187.223 4.46017 187.137 4.1032 186.983 3.78507C186.592 2.97598 185.763 2.41792 184.804 2.41792H160.614C159.278 2.41792 158.195 3.50094 158.195 4.83692C158.195 6.1729 159.278 7.25592 160.614 7.25592H182.385Z" fill="#2997FF"/>
<path fill-rule="evenodd" clip-rule="evenodd" d="M9.6769 145.418L9.6769 123.646C9.6769 122.31 8.59388 121.227 7.2579 121.227C5.92193 121.227 4.8389 122.31 4.8389 123.646V147.836C4.8389 148.211 4.92401 148.566 5.07594 148.882C5.46591 149.695 6.29647 150.256 7.25808 150.256H31.4481C32.7841 150.256 33.8671 149.173 33.8671 147.837C33.8671 146.501 32.7841 145.418 31.4481 145.418H9.6769Z" fill="#2997FF"/>
<path fill-rule="evenodd" clip-rule="evenodd" d="M9.67701 7.25796L9.67701 30.2382C9.67701 31.5742 8.59399 32.6572 7.25801 32.6572C5.92204 32.6572 4.83901 31.5742 4.83901 30.2382V6.04823C4.83901 5.83932 4.86549 5.6366 4.91528 5.44324C4.86561 5.25009 4.83919 5.04761 4.83919 4.83896C4.83919 3.50299 5.92221 2.41996 7.25819 2.41996H31.4482C32.7842 2.41996 33.8672 3.50299 33.8672 4.83896C33.8672 6.17494 32.7842 7.25796 31.4482 7.25796H9.67701Z" fill="#2997FF"/>
<defs>
<linearGradient id="paint0_linear_152_5799" x1="96.132" y1="0" x2="96.132" y2="154.171" gradientUnits="userSpaceOnUse">
<stop stop-color="#2997FF"/>
<stop offset="1" stop-color="#2997FF" stop-opacity="0"/>
</linearGradient>
</defs>
</svg>
