<svg width="236" height="209" viewBox="0 0 236 209" fill="none" xmlns="http://www.w3.org/2000/svg">
<path d="M3.95385 90.3458L53.6122 29.1441C56.0536 26.1352 60.4664 25.6797 63.4684 28.1267L140.757 91.1271C143.409 93.2885 143.81 97.1951 141.654 99.8527L91.4298 161.751C89.2734 164.409 85.3758 164.811 82.7242 162.65L4.87574 99.1931C2.18294 96.9981 1.77529 93.0308 3.96523 90.3318L3.95385 90.3458Z" fill="white"/>
<path fill-rule="evenodd" clip-rule="evenodd" d="M81.9377 163.617C83.2488 164.694 84.8916 165.281 86.5864 165.281C86.839 165.281 87.0856 165.263 87.3623 165.226C89.3124 165.03 91.1032 164.059 92.3358 162.532L142.594 100.602C143.831 99.0781 144.413 97.1237 144.213 95.1692C144.012 93.2146 143.045 91.4201 141.524 90.1804L64.2326 27.1778C62.5425 25.8014 60.3758 25.1551 58.2099 25.3812C56.0439 25.6073 54.0566 26.6874 52.6858 28.3834L3.01065 89.6017C1.75674 91.1448 1.16628 93.1242 1.36932 95.1039C1.57236 97.0836 2.55226 98.9012 4.09316 100.156L81.9377 163.617ZM58.4592 27.7565H59.0606C60.3907 27.7565 61.68 28.2164 62.7111 29.0585L140.02 92.0671C142.152 93.808 142.475 96.9496 140.742 99.0894L90.4895 161.025C88.7487 163.159 85.6151 163.482 83.4772 161.748L5.60866 98.2516C4.5633 97.3999 3.8986 96.1667 3.76098 94.8235C3.62336 93.4803 4.02411 92.1374 4.87496 91.0906L54.5502 29.8722C55.5182 28.671 56.9262 27.9089 58.4592 27.7565Z" fill="#202536"/>
<path d="M28.2751 95.8162C27.8686 95.8186 27.4974 95.5847 27.3234 95.2164C27.1494 94.8481 27.2039 94.4121 27.4633 94.0983L51.2845 64.7369C51.6515 64.2842 52.3152 64.2153 52.7669 64.5832C53.2187 64.9511 53.2873 65.6163 52.9203 66.069L29.093 95.4244C28.8945 95.6735 28.5932 95.8178 28.2751 95.8162Z" fill="#202536"/>
<path d="M54.8858 79.7638C54.4804 79.7636 54.1112 79.5299 53.9366 79.1632C53.762 78.7965 53.8131 78.3619 54.0679 78.0459L70.6844 57.5514C71.0514 57.0986 71.7152 57.0298 72.1669 57.3976C72.6186 57.7655 72.6872 58.4307 72.3202 58.8835L55.7037 79.378C55.5023 79.6227 55.2023 79.7642 54.8858 79.7638Z" fill="#202536"/>
<path d="M36.4546 102.483C36.2137 102.483 35.98 102.4 35.7931 102.247C35.3409 101.879 35.271 101.213 35.6367 100.759L50.4731 82.5064C50.8401 82.0537 51.5039 81.9849 51.9556 82.3527C52.4073 82.7206 52.4759 83.3858 52.1089 83.8386L37.2725 102.121C37.0676 102.358 36.7675 102.491 36.4546 102.483Z" fill="#202536"/>
<path d="M44.6322 109.149C44.2267 109.146 43.8587 108.911 43.6846 108.544C43.5105 108.177 43.5608 107.742 43.8143 107.425L78.8635 64.2361C79.089 63.9117 79.4766 63.7409 79.8675 63.7936C80.2585 63.8464 80.5871 64.1138 80.719 64.4865C80.8508 64.8591 80.7637 65.2743 80.4933 65.5622L45.444 108.757C45.2474 109.005 44.9483 109.15 44.6322 109.149Z" fill="#202536"/>
<path d="M83.1048 78.48C82.6994 78.4768 82.3314 78.2418 82.1573 77.8748C81.9831 77.5077 82.0335 77.0733 82.2869 76.7561L87.0379 70.897C87.2754 70.6042 87.6506 70.4605 88.0224 70.5201C88.3942 70.5798 88.7059 70.8337 88.8403 71.1862C88.9746 71.5387 88.9112 71.9363 88.6737 72.2292L83.9167 78.0882C83.72 78.3363 83.421 78.4806 83.1048 78.48Z" fill="#202536"/>
<path d="M52.806 115.81C52.5646 115.813 52.3301 115.73 52.1444 115.575C51.6949 115.207 51.6276 114.543 51.9941 114.092L78.7321 81.1383C78.9695 80.8454 79.3448 80.7017 79.7165 80.7613C80.0883 80.821 80.4001 81.0749 80.5344 81.4274C80.6688 81.7799 80.6053 82.1775 80.3679 82.4704L53.6239 115.424C53.4225 115.669 53.1224 115.811 52.806 115.81Z" fill="#202536"/>
<path d="M60.9854 122.477C60.58 122.476 60.2108 122.243 60.0362 121.876C59.8616 121.509 59.9127 121.075 60.1675 120.759L92.8413 80.493C93.2158 80.0704 93.8562 80.0188 94.2932 80.3761C94.7303 80.7333 94.8087 81.3724 94.4711 81.8251L61.8274 122.091C61.6207 122.342 61.3103 122.484 60.9854 122.477Z" fill="#202536"/>
<path d="M56.4494 32.1924C56.2806 32.1936 56.1191 32.1236 56.0044 31.9995C55.8951 31.8816 55.8375 31.7248 55.8443 31.564C55.8511 31.4032 55.9217 31.2519 56.0404 31.1436C57.5 29.8574 59.6037 29.617 61.3147 30.5408C61.5126 30.6349 61.6438 30.8295 61.6572 31.0487C61.6705 31.2679 61.5638 31.477 61.3787 31.5946C61.1937 31.7121 60.9595 31.7195 60.7674 31.6138C59.508 30.9175 57.9496 31.0785 56.8583 32.0176C56.7493 32.1261 56.603 32.1886 56.4494 32.1924Z" fill="#202536"/>
<path d="M62.9304 38.6834L136.899 13.8337C140.883 12.4954 145.195 14.6474 146.53 18.6403L178.47 114.154C179.296 116.623 177.969 119.295 175.506 120.122L97.1753 146.437C94.7126 147.264 92.0471 145.934 91.2216 143.466L58.8968 46.8028C57.7737 43.4443 59.5796 39.8091 62.9304 38.6834Z" fill="white"/>
<path fill-rule="evenodd" clip-rule="evenodd" d="M92.9964 147.306C93.8148 147.706 94.714 147.912 95.6245 147.909C96.264 147.91 96.8996 147.808 97.5069 147.607L175.863 121.308C177.348 120.81 178.576 119.741 179.274 118.335C179.972 116.93 180.084 115.304 179.585 113.815L147.651 18.2989C146.098 13.6793 141.11 11.1888 136.495 12.7292L62.5238 37.5758C58.5383 38.9076 56.3844 43.2254 57.7126 47.2203L90.0316 143.888C90.5246 145.379 91.5923 146.609 92.9964 147.306ZM137.235 15.0318C137.89 14.8086 138.576 14.6946 139.268 14.6942V14.6641C142.027 14.6757 144.472 16.4514 145.342 19.0765L177.276 114.593C177.887 116.43 176.9 118.417 175.069 119.035L96.7371 145.347C94.9039 145.96 92.9215 144.97 92.3048 143.135L59.9859 46.4668C59.0804 43.7391 60.5457 40.7909 63.2635 39.8724L137.235 15.0318Z" fill="#202536"/>
<path d="M122.466 42.6391C121.95 42.6409 121.508 42.2664 121.424 41.7552C121.34 41.2441 121.639 40.7476 122.13 40.5837L133.328 36.8223C133.879 36.6375 134.475 36.9358 134.66 37.4884C134.844 38.041 134.546 38.6388 133.995 38.8235L122.797 42.5789C122.692 42.6193 122.579 42.6397 122.466 42.6391Z" fill="#202536"/>
<path d="M80.9937 56.5867C80.4769 56.5885 80.0353 56.2139 79.9515 55.7028C79.8678 55.1917 80.1667 54.6952 80.6569 54.5312L116.458 42.4756C116.822 42.3238 117.239 42.3883 117.541 42.6426C117.842 42.8969 117.976 43.2985 117.889 43.6835C117.801 44.0684 117.507 44.3722 117.125 44.4708L81.3244 56.4963C81.2209 56.5471 81.1086 56.5778 80.9937 56.5867Z" fill="#202536"/>
<path d="M112.036 57.2804C111.521 57.2793 111.082 56.9038 111 56.3935C110.918 55.8833 111.217 55.3886 111.706 55.225L136.676 46.8403C137.21 46.702 137.761 47.0015 137.936 47.5263C138.112 48.0511 137.853 48.6227 137.343 48.8355L112.373 57.2262C112.265 57.2618 112.151 57.2801 112.036 57.2804Z" fill="#202536"/>
<path d="M84.3373 66.5811C83.8216 66.5799 83.3827 66.2044 83.3006 65.6942C83.2185 65.184 83.5174 64.6892 84.0065 64.5256L106.33 57.0391C106.882 56.8527 107.479 57.1495 107.665 57.7021C107.851 58.2548 107.555 58.8539 107.004 59.0403L84.6801 66.5268C84.5695 66.5636 84.4537 66.5819 84.3373 66.5811Z" fill="#202536"/>
<path d="M87.6869 76.5996C87.1712 76.5985 86.7324 76.223 86.6502 75.7127C86.5681 75.2025 86.867 74.7078 87.3561 74.5442L140.008 56.8526C140.56 56.6661 141.157 56.963 141.343 57.5156C141.529 58.0682 141.233 58.6674 140.682 58.8538L88.0116 76.5454C87.9067 76.5798 87.7972 76.5981 87.6869 76.5996Z" fill="#202536"/>
<path d="M136.562 71.3248C136.045 71.3266 135.604 70.952 135.52 70.4409C135.436 69.9297 135.735 69.4333 136.225 69.2693L143.37 66.8582C143.726 66.7387 144.12 66.8189 144.401 67.0688C144.683 67.3186 144.81 67.7 144.735 68.0694C144.66 68.4387 144.394 68.7399 144.037 68.8594L136.899 71.2705C136.79 71.3061 136.676 71.3244 136.562 71.3248Z" fill="#202536"/>
<path d="M91.0375 86.6178C90.5852 86.6138 90.1848 86.3237 90.0391 85.8945C89.95 85.6291 89.9703 85.339 90.0957 85.0888C90.2211 84.8386 90.4411 84.649 90.7067 84.5623L130.886 71.054C131.248 70.9078 131.661 70.9744 131.959 71.227C132.257 71.4796 132.391 71.8767 132.307 72.2588C132.223 72.6408 131.936 72.9451 131.559 73.0492L91.3742 86.5515C91.2662 86.5912 91.1525 86.6136 91.0375 86.6178Z" fill="#202536"/>
<path d="M94.3863 96.6302C93.8695 96.6319 93.4278 96.2574 93.3441 95.7462C93.2603 95.2351 93.5592 94.7386 94.0495 94.5747L143.147 78.0886C143.504 77.9691 143.897 78.0494 144.179 78.2992C144.46 78.5491 144.588 78.9305 144.513 79.2998C144.437 79.6692 144.172 79.9704 143.815 80.0899L94.723 96.5759C94.6142 96.611 94.5006 96.6293 94.3863 96.6302Z" fill="#202536"/>
<path d="M142.702 19.5042C142.485 19.5039 142.285 19.3864 142.179 19.1968C141.608 18.0881 140.407 17.4548 139.172 17.6115C138.957 17.646 138.74 17.5629 138.603 17.3936C138.466 17.2244 138.429 16.9946 138.507 16.7909C138.585 16.5871 138.765 16.4404 138.98 16.4059C140.709 16.1717 142.401 17.0425 143.219 18.588C143.299 18.7277 143.32 18.8936 143.277 19.0487C143.234 19.2038 143.131 19.3353 142.991 19.4138C142.903 19.4665 142.804 19.4975 142.702 19.5042Z" fill="#202536"/>
<path d="M168.609 24.7144L230.012 72.9369C233.32 75.5342 233.9 80.3271 231.309 83.642L169.321 162.937C167.719 164.986 164.763 165.346 162.718 163.74L97.6939 112.673C95.6494 111.068 95.2906 108.105 96.8925 106.056L159.626 25.8072C160.672 24.4683 162.207 23.601 163.892 23.396C165.576 23.1911 167.273 23.6653 168.609 24.7144Z" fill="white"/>
<path fill-rule="evenodd" clip-rule="evenodd" d="M161.977 164.689C163.014 165.507 164.296 165.951 165.615 165.949C167.433 165.954 169.151 165.118 170.27 163.683L232.232 84.387C233.673 82.543 234.325 80.2006 234.043 77.8752C233.761 75.5498 232.568 73.432 230.728 71.9878L169.326 23.7654C166.02 21.1712 161.243 21.7512 158.651 25.0613L95.9437 105.309C93.937 107.885 94.3861 111.601 96.948 113.622L161.977 164.689ZM160.569 26.5502C161.556 25.2891 163.066 24.5532 164.665 24.555C165.821 24.5428 166.948 24.9207 167.864 25.628L229.273 73.8503C230.618 74.9014 231.489 76.4469 231.694 78.1442C231.898 79.8415 231.418 81.5504 230.361 82.892L168.376 162.188C167.805 162.922 166.966 163.398 166.044 163.512C165.122 163.625 164.193 163.365 163.462 162.791L98.4394 111.723C96.9196 110.528 96.6507 108.326 97.838 106.798L160.569 26.5502Z" fill="#202536"/>
<path d="M208.291 84.5075C208.056 84.5071 207.827 84.4287 207.641 84.2845L198.344 76.9848C198.047 76.7522 197.897 76.3788 197.95 76.0051C198.003 75.6315 198.25 75.3144 198.599 75.1733C198.949 75.0322 199.346 75.0886 199.643 75.3211L208.934 82.6208C209.289 82.898 209.429 83.3706 209.282 83.7967C209.135 84.2229 208.735 84.5085 208.285 84.5075H208.291Z" fill="#202536"/>
<path d="M201.79 92.8198C201.556 92.8194 201.33 92.7409 201.146 92.5968L180.416 76.3217C180.196 76.1504 180.053 75.8981 180.019 75.6209C179.986 75.3437 180.063 75.0644 180.236 74.8449C180.596 74.3879 181.256 74.3072 181.715 74.6641L202.439 90.9391C202.789 91.2176 202.925 91.687 202.779 92.11C202.633 92.533 202.236 92.8175 201.79 92.8198Z" fill="#202536"/>
<path d="M176.58 73.0192C176.344 73.0202 176.115 72.9416 175.93 72.7962L157.449 58.2631C157.153 58.0306 157.003 57.6571 157.055 57.2834C157.108 56.9098 157.356 56.5927 157.705 56.4516C158.054 56.3105 158.452 56.3669 158.748 56.5995L177.259 71.1385C177.609 71.417 177.745 71.8864 177.599 72.3094C177.453 72.7324 177.056 73.0169 176.61 73.0192H176.58Z" fill="#202536"/>
<path d="M195.293 101.138C195.058 101.139 194.829 101.061 194.644 100.915L150.916 66.5568C150.603 66.3305 150.438 65.95 150.487 65.5656C150.537 65.1813 150.792 64.855 151.153 64.7159C151.514 64.5767 151.922 64.6471 152.215 64.8991L195.943 99.2576C196.298 99.5348 196.437 100.007 196.291 100.433C196.144 100.86 195.743 101.145 195.293 101.144V101.138Z" fill="#202536"/>
<path d="M188.792 109.451C188.557 109.452 188.328 109.374 188.143 109.228L182.213 104.575C181.916 104.342 181.766 103.969 181.819 103.595C181.872 103.221 182.119 102.904 182.468 102.763C182.818 102.622 183.215 102.678 183.512 102.911L189.442 107.57C189.791 107.849 189.928 108.318 189.781 108.741C189.635 109.164 189.239 109.449 188.792 109.451Z" fill="#202536"/>
<path d="M178.425 101.313C178.19 101.314 177.961 101.235 177.775 101.09L144.416 74.8931C143.958 74.5335 143.877 73.8696 144.236 73.4102C144.594 72.9508 145.257 72.8698 145.715 73.2294L179.099 99.4262C179.453 99.7034 179.593 100.176 179.446 100.602C179.3 101.028 178.899 101.314 178.449 101.313H178.425Z" fill="#202536"/>
<path d="M179.327 115.442C179.09 115.444 178.861 115.363 178.677 115.213L137.915 83.2058C137.486 82.8382 137.423 82.1975 137.772 81.7529C138.12 81.3084 138.756 81.2181 139.214 81.5482L179.976 113.556C180.331 113.833 180.471 114.306 180.324 114.732C180.177 115.158 179.777 115.443 179.327 115.442Z" fill="#202536"/>
<path d="M229.014 81.2107C228.918 81.2087 228.824 81.1861 228.738 81.1444C228.444 80.9895 228.331 80.6252 228.485 80.3306C229.08 79.2426 228.948 77.9006 228.154 76.949C227.928 76.7043 227.943 76.3225 228.187 76.0961C228.432 75.8697 228.812 75.8845 229.038 76.1292C230.175 77.4553 230.379 79.3468 229.55 80.8852C229.446 81.0855 229.239 81.2111 229.014 81.2107Z" fill="#202536"/>
<path d="M150.287 8.67164C150.019 8.66983 149.784 8.49055 149.712 8.23199C149.639 7.97342 149.746 7.69797 149.974 7.5565L153.053 5.65171C153.334 5.47877 153.702 5.56481 153.877 5.8446C153.962 5.98042 153.989 6.14449 153.953 6.30057C153.917 6.45665 153.821 6.5919 153.685 6.67644L150.606 8.58123C150.51 8.64068 150.399 8.672 150.287 8.67164Z" fill="#2997FF"/>
<path d="M146.516 6.55652C146.305 6.55596 146.11 6.44472 146.001 6.26335C145.893 6.08199 145.887 5.85701 145.987 5.67043L147.893 2.05375C147.99 1.8578 148.185 1.72985 148.403 1.71944C148.621 1.70902 148.828 1.81777 148.943 2.00359C149.058 2.18942 149.063 2.42316 148.957 2.61434L147.051 6.23102C146.947 6.43138 146.741 6.55699 146.516 6.55652Z" fill="#2997FF"/>
<path d="M142.413 5.06143C142.105 5.0633 141.845 4.83173 141.811 4.52495L141.384 0.66716C141.349 0.337973 141.585 0.0419453 141.914 0.0041016C142.072 -0.0145509 142.232 0.0309064 142.357 0.130434C142.482 0.229962 142.563 0.375371 142.581 0.534548L143.002 4.39234C143.037 4.72153 142.801 5.01755 142.473 5.0554L142.413 5.06143Z" fill="#2997FF"/>
<path fill-rule="evenodd" clip-rule="evenodd" d="M199.475 116.582V190.615C199.475 200.103 191.801 207.794 182.335 207.794H59.8429C50.3768 207.794 42.7031 200.103 42.7031 190.615V97.8772C42.7031 86.0391 52.2778 76.4424 64.0887 76.4424H113.668C120.175 76.4456 126.327 79.4157 130.386 84.5136L137.098 92.9525C138.88 95.196 141.586 96.503 144.447 96.5029H179.436C184.751 96.4997 189.848 98.6139 193.607 102.38C197.365 106.146 199.476 111.255 199.475 116.582Z" fill="#685CE1"/>
<path fill-rule="evenodd" clip-rule="evenodd" d="M59.8425 209H182.335C192.461 208.99 200.667 200.765 200.677 190.616V116.582C200.661 104.835 191.162 95.3172 179.442 95.3039H144.453C141.956 95.3079 139.594 94.1665 138.042 92.2057L131.33 83.7667C127.057 78.3616 120.548 75.2182 113.667 75.2374H64.0884C51.6187 75.2507 41.5133 85.3794 41.5 97.8778V190.616C41.5099 200.765 49.7164 208.99 59.8425 209ZM43.9056 97.8778C43.9155 86.7096 52.9458 77.6585 64.0884 77.6485H113.667C119.814 77.6337 125.628 80.4411 129.448 85.2676L136.159 93.7066C138.166 96.2445 141.222 97.7216 144.453 97.715H179.442C189.835 97.725 198.258 106.165 198.272 116.582V190.616C198.262 199.433 191.132 206.579 182.335 206.589H59.8425C51.0449 206.579 43.9155 199.433 43.9056 190.616V97.8778Z" fill="#202536"/>
<path d="M189.851 111.44C189.609 111.44 189.392 111.295 189.298 111.073C188.203 108.49 186.044 106.51 183.38 105.648C183.086 105.531 182.932 105.205 183.029 104.903C183.126 104.601 183.439 104.426 183.747 104.502C186.747 105.469 189.178 107.699 190.404 110.608C190.533 110.915 190.391 111.268 190.085 111.398C190.01 111.426 189.931 111.441 189.851 111.44Z" fill="#202536"/>
<path d="M119.904 148.011C119.771 148.012 119.642 147.97 119.537 147.89L113.42 143.183C113.159 142.979 113.11 142.602 113.312 142.339C113.513 142.075 113.89 142.023 114.154 142.224L120.27 146.932C120.532 147.135 120.581 147.513 120.379 147.776C120.265 147.924 120.09 148.011 119.904 148.011Z" fill="#202536"/>
<path d="M126.014 146.836C125.884 146.836 125.757 146.793 125.653 146.715L113.42 137.306C113.159 137.102 113.11 136.725 113.312 136.462C113.513 136.198 113.89 136.146 114.154 136.347L126.381 145.757C126.583 145.915 126.664 146.184 126.581 146.427C126.498 146.671 126.27 146.835 126.014 146.836Z" fill="#202536"/>
<path d="M126.014 140.838C125.884 140.838 125.757 140.795 125.653 140.717L122.286 138.125C122.022 137.924 121.971 137.546 122.171 137.281C122.268 137.152 122.412 137.068 122.571 137.046C122.731 137.025 122.892 137.068 123.019 137.167L126.381 139.759C126.584 139.916 126.664 140.186 126.582 140.429C126.499 140.673 126.271 140.837 126.014 140.838Z" fill="#202536"/>
<path d="M56.8289 200.899C56.7657 200.897 56.7029 200.887 56.6425 200.868C53.6457 199.896 51.217 197.668 49.9851 194.762C49.8555 194.454 49.9996 194.099 50.3068 193.97C50.6141 193.84 50.9681 193.984 51.0977 194.292C52.1939 196.874 54.3524 198.852 57.0154 199.717C57.3475 199.769 57.575 200.08 57.5236 200.413C57.4721 200.746 57.1611 200.974 56.8289 200.923V200.899Z" fill="#202536"/>
<path d="M158.945 208.397C158.613 208.397 158.344 208.127 158.344 207.794V202.616C158.344 202.284 158.613 202.014 158.945 202.014C159.277 202.014 159.547 202.284 159.547 202.616V207.794C159.547 208.127 159.277 208.397 158.945 208.397Z" fill="#202536"/>
<path d="M164.568 208.397C164.236 208.397 163.967 208.127 163.967 207.794V197.408C163.967 197.076 164.236 196.806 164.568 196.806C164.9 196.806 165.17 197.076 165.17 197.408V207.794C165.17 208.127 164.9 208.397 164.568 208.397Z" fill="#202536"/>
</svg>
