<svg width="22" height="20" viewBox="0 0 22 20" fill="none" xmlns="http://www.w3.org/2000/svg">
<path d="M16.6247 19.7629H5.08443V7.11797L12.2921 0L12.8002 0.508098C12.9044 0.61309 12.9925 0.747203 13.0646 0.910438C13.1358 1.07367 13.1715 1.22388 13.1715 1.36106V1.54269L11.9955 7.11797H19.9848C20.4653 7.11797 20.8945 7.30726 21.2723 7.68585C21.6516 8.06443 21.8413 8.49397 21.8413 8.97448V10.3896C21.8413 10.4946 21.8298 10.6088 21.8068 10.7321C21.7823 10.8563 21.7509 10.9705 21.7126 11.0747L18.5743 18.5157C18.4165 18.8698 18.1509 19.166 17.7777 19.4043C17.4052 19.6434 17.0209 19.7629 16.6247 19.7629ZM6.23397 18.6134H16.6247C16.7864 18.6134 16.9519 18.5693 17.1213 18.4812C17.2907 18.3923 17.4198 18.2448 17.5087 18.0386L20.6918 10.5666V8.97448C20.6918 8.76833 20.6255 8.59897 20.4929 8.46639C20.3603 8.33381 20.191 8.26752 19.9848 8.26752H10.5666L11.8978 1.98871L6.23397 7.60883V18.6134ZM5.08443 7.11797V8.26752H1.14954V18.6134H5.08443V19.7629H0V7.11797H5.08443Z" fill="black"/>
</svg>
