<svg width="25" height="18" viewBox="0 0 25 18" fill="none" xmlns="http://www.w3.org/2000/svg">
<path d="M2.04922 17.1004H7.44922C8.19172 17.1004 8.79922 16.4929 8.79922 15.7504C8.79922 15.0079 8.19172 14.4004 7.44922 14.4004H2.04922C1.30672 14.4004 0.699219 15.0079 0.699219 15.7504C0.699219 16.4929 1.30672 17.1004 2.04922 17.1004ZM0.699219 2.25039C0.699219 2.99289 1.30672 3.60039 2.04922 3.60039H23.6492C24.3917 3.60039 24.9992 2.99289 24.9992 2.25039C24.9992 1.50789 24.3917 0.900391 23.6492 0.900391H2.04922C1.30672 0.900391 0.699219 1.50789 0.699219 2.25039ZM2.04922 10.3504H15.5492C16.2917 10.3504 16.8992 9.74289 16.8992 9.00039C16.8992 8.25789 16.2917 7.65039 15.5492 7.65039H2.04922C1.30672 7.65039 0.699219 8.25789 0.699219 9.00039C0.699219 9.74289 1.30672 10.3504 2.04922 10.3504Z" fill="white"/>
</svg>
