<svg width="42" height="42" viewBox="0 0 42 42" fill="none" xmlns="http://www.w3.org/2000/svg">
<g filter="url(#filter0_ii_137_3999)">
<path fill-rule="evenodd" clip-rule="evenodd" d="M9.62422 3.5C8.07782 3.5 6.82422 4.7536 6.82422 6.3V35.7C6.82422 37.2464 8.07782 38.5 9.62422 38.5H32.3742C33.9206 38.5 35.1742 37.2464 35.1742 35.7V6.3C35.1742 6.28881 35.1742 6.27764 35.174 6.26649V12.25L26.424 3.5H9.62422Z" fill="#FA4E4E"/>
</g>
<path d="M17.4386 17.1888C17.3417 17.0985 17.2649 16.9913 17.2125 16.8732C17.1601 16.7552 17.1331 16.6286 17.1331 16.5008C17.1331 16.373 17.1601 16.2465 17.2125 16.1284C17.2649 16.0104 17.3417 15.9031 17.4386 15.8128L20.1438 13.2854C20.2405 13.1949 20.3553 13.1231 20.4816 13.0742C20.608 13.0252 20.7434 13 20.8802 13C21.017 13 21.1525 13.0252 21.2788 13.0742C21.4052 13.1231 21.52 13.1949 21.6166 13.2854L24.3219 15.8128C24.4186 15.9032 24.4953 16.0104 24.5476 16.1285C24.6 16.2465 24.6269 16.3731 24.6269 16.5008C24.6269 16.6286 24.6 16.7551 24.5476 16.8731C24.4953 16.9912 24.4186 17.0985 24.3219 17.1888C24.2252 17.2791 24.1104 17.3508 23.984 17.3997C23.8577 17.4486 23.7223 17.4738 23.5855 17.4738C23.4488 17.4738 23.3133 17.4486 23.187 17.3997C23.0606 17.3508 22.9458 17.2791 22.8491 17.1888L21.9195 16.33V21.3069C21.9195 22.3413 22.3582 23.3367 23.1416 24.0686L27.445 28.0891C27.5417 28.1794 27.6184 28.2867 27.6707 28.4047C27.7231 28.5228 27.75 28.6493 27.75 28.7771C27.75 28.9048 27.7231 29.0313 27.6707 29.1494C27.6184 29.2674 27.5417 29.3747 27.445 29.465C27.3483 29.5554 27.2335 29.627 27.1071 29.6759C26.9808 29.7248 26.8454 29.75 26.7086 29.75C26.5718 29.75 26.4364 29.7248 26.3101 29.6759C26.1837 29.627 26.0689 29.5554 25.9722 29.465L20.875 24.7029L15.7778 29.465C15.5825 29.6475 15.3176 29.75 15.0414 29.75C14.7652 29.75 14.5003 29.6475 14.305 29.465C14.1097 29.2826 14 29.0351 14 28.7771C14 28.519 14.1097 28.2715 14.305 28.0891L18.6084 24.0686C19.3918 23.3367 19.8305 22.3413 19.8305 21.3069V16.33L18.9113 17.1888C18.8147 17.2793 18.6999 17.351 18.5735 17.4C18.4472 17.449 18.3117 17.4742 18.1749 17.4742C18.0381 17.4742 17.9027 17.449 17.7763 17.4C17.65 17.351 17.5352 17.2793 17.4386 17.1888Z" fill="white"/>
<path d="M34.3548 11.4297H27.2461L35.1758 19.3594L35.1758 12.25L34.3548 11.4297Z" fill="url(#paint0_linear_137_3999)"/>
<path d="M29.2258 12.25L35.1758 12.25L26.4258 3.5L26.4258 9.45C26.4258 10.9964 27.6794 12.25 29.2258 12.25Z" fill="#FDB8B8"/>
<defs>
<filter id="filter0_ii_137_3999" x="6.82422" y="3.325" width="28.3496" height="35.35" filterUnits="userSpaceOnUse" color-interpolation-filters="sRGB">
<feFlood flood-opacity="0" result="BackgroundImageFix"/>
<feBlend mode="normal" in="SourceGraphic" in2="BackgroundImageFix" result="shape"/>
<feColorMatrix in="SourceAlpha" type="matrix" values="0 0 0 0 0 0 0 0 0 0 0 0 0 0 0 0 0 0 127 0" result="hardAlpha"/>
<feOffset dy="-0.35"/>
<feGaussianBlur stdDeviation="0.0875"/>
<feComposite in2="hardAlpha" operator="arithmetic" k2="-1" k3="1"/>
<feColorMatrix type="matrix" values="0 0 0 0 0 0 0 0 0 0 0 0 0 0 0 0 0 0 0.3 0"/>
<feBlend mode="normal" in2="shape" result="effect1_innerShadow_137_3999"/>
<feColorMatrix in="SourceAlpha" type="matrix" values="0 0 0 0 0 0 0 0 0 0 0 0 0 0 0 0 0 0 127 0" result="hardAlpha"/>
<feOffset dy="0.35"/>
<feGaussianBlur stdDeviation="0.0875"/>
<feComposite in2="hardAlpha" operator="arithmetic" k2="-1" k3="1"/>
<feColorMatrix type="matrix" values="0 0 0 0 1 0 0 0 0 1 0 0 0 0 1 0 0 0 0.3 0"/>
<feBlend mode="normal" in2="effect1_innerShadow_137_3999" result="effect2_innerShadow_137_3999"/>
</filter>
<linearGradient id="paint0_linear_137_3999" x1="29.0234" y1="9.65234" x2="36.9531" y2="17.582" gradientUnits="userSpaceOnUse">
<stop stop-opacity="0.2"/>
<stop offset="1" stop-opacity="0"/>
</linearGradient>
</defs>
</svg>
