<svg width="49" height="42" viewBox="0 0 49 42" fill="none" xmlns="http://www.w3.org/2000/svg">
<g filter="url(#filter0_ii_223_8036)">
<path fill-rule="evenodd" clip-rule="evenodd" d="M12.3576 3.5C10.9584 3.5 9.82422 4.63421 9.82422 6.03333V35.9667C9.82422 37.3658 10.9584 38.5 12.3576 38.5H35.6409C37.04 38.5 38.1742 37.3658 38.1742 35.9667V6.03333C38.1742 6.02731 38.1742 6.0213 38.1742 6.01529V12.25L29.4242 3.5H12.3576Z" fill="#FA4E4E"/>
</g>
<path d="M23.4695 14.4866C22.6171 14.4232 21.7965 14.1067 21.1336 13.5369C19.8393 13.8217 18.608 14.2332 17.3769 14.7398C16.3984 16.4807 15.4829 17.367 14.6937 17.367C14.5358 17.367 14.3465 17.3354 14.2202 17.2404C13.8729 17.0822 13.6836 16.7339 13.6836 16.3858C13.6836 16.1008 13.7467 15.3096 16.7456 14.0117C17.4402 12.7455 17.9767 11.4478 18.4188 10.0867C18.0399 9.32702 17.2192 7.45936 17.7872 6.5099C17.9767 6.16162 18.3556 5.9717 18.7661 6.00343C19.0817 6.00343 19.3973 6.16162 19.5867 6.41485C19.9972 6.98463 19.9656 8.18748 19.4288 9.96011C19.934 10.9084 20.5957 11.7645 21.386 12.4924C22.0491 12.3657 22.7119 12.2708 23.3748 12.2708C24.8585 12.3023 25.0795 12.9987 25.0479 13.4103C25.0479 14.4866 24.0061 14.4866 23.4695 14.4866ZM14.6307 16.4489L14.7254 16.4174C15.1673 16.2592 15.5145 15.9426 15.7671 15.5311C15.2934 15.721 14.9147 16.0375 14.6307 16.4491V16.4489ZM18.8291 6.95305H18.7343C18.7028 6.95305 18.6396 6.95305 18.608 6.98463C18.4817 7.52267 18.5765 8.09244 18.7975 8.5989C18.9869 8.06086 18.9869 7.49109 18.8291 6.95305ZM19.0501 11.5428L19.0185 11.606L18.9869 11.5744C18.7028 12.3025 18.387 13.0305 18.0399 13.7269L18.103 13.6953V13.7584C18.805 13.5039 19.5219 13.2925 20.2496 13.1253L20.2181 13.0938H20.3128C19.8392 12.6189 19.3973 12.0808 19.0501 11.5428ZM23.3432 13.2204C23.059 13.2204 22.8066 13.2204 22.5224 13.2835C22.8382 13.4419 23.1539 13.5052 23.4695 13.5369C23.6905 13.5685 23.9116 13.5369 24.1008 13.4736C24.1008 13.3786 23.9745 13.2204 23.3432 13.2204Z" fill="white"/>
<path d="M37.3548 11.4297L30.2461 11.4297L38.1758 19.3594V12.25L37.3548 11.4297Z" fill="url(#paint0_linear_223_8036)"/>
<path d="M31.9591 12.25L38.1758 12.25L29.4258 3.5L29.4258 9.71667C29.4258 11.1158 30.56 12.25 31.9591 12.25Z" fill="#FDB8B8"/>
<path fill-rule="evenodd" clip-rule="evenodd" d="M47.0729 37.5873L47.0729 32.2971C47.0729 31.9895 47.3222 31.7402 47.6297 31.7402C47.9372 31.7402 48.1865 31.9895 48.1865 32.2971V37.8654C48.1865 37.914 48.1803 37.9611 48.1686 38.006C48.1799 38.0502 48.1859 38.0964 48.1859 38.1441C48.1859 38.4516 47.9366 38.7009 47.629 38.7009H42.0607C41.7532 38.7009 41.5039 38.4516 41.5039 38.1441C41.5039 37.8366 41.7532 37.5873 42.0607 37.5873H47.0729Z" fill="#685CE1"/>
<path fill-rule="evenodd" clip-rule="evenodd" d="M47.0729 1.11328L47.0729 6.12481C47.0729 6.43234 47.3222 6.68164 47.6297 6.68164C47.9372 6.68164 48.1865 6.43234 48.1865 6.12481V0.556512C48.1865 0.266887 47.9654 0.0289068 47.6828 0.0021801C47.6651 0.00048542 47.6472 -0.000384331 47.629 -0.000384331H42.0607C41.7532 -0.000384331 41.5039 0.248917 41.5039 0.556445C41.5039 0.863974 41.7532 1.11328 42.0607 1.11328H47.0729Z" fill="#685CE1"/>
<path fill-rule="evenodd" clip-rule="evenodd" d="M1.11462 37.3086L1.11462 32.2971C1.11462 31.9895 0.865315 31.7402 0.557787 31.7402C0.250258 31.7402 0.000957012 31.9895 0.000957012 32.2971V37.8654C0.000957012 38.155 0.222076 38.393 0.504707 38.4197C0.522398 38.4214 0.54033 38.4223 0.558465 38.4223H6.12676C6.43429 38.4223 6.68359 38.173 6.68359 37.8654C6.68359 37.5579 6.43429 37.3086 6.12676 37.3086H1.11462Z" fill="#685CE1"/>
<path fill-rule="evenodd" clip-rule="evenodd" d="M1.11462 1.11388L1.11462 6.40508C1.11462 6.71261 0.865315 6.96191 0.557787 6.96191C0.250258 6.96191 0.000957012 6.71261 0.000957012 6.40508V0.836786C0.000957012 0.788006 0.00722933 0.740692 0.0190115 0.695605C0.00766754 0.651308 0.00163603 0.604883 0.00163603 0.557049C0.00163603 0.249521 0.250937 0.000219345 0.558465 0.000219345H6.12676C6.43429 0.000219345 6.68359 0.249521 6.68359 0.557049C6.68359 0.864578 6.43429 1.11388 6.12676 1.11388H1.11462Z" fill="#685CE1"/>
<g opacity="0.6">
<rect x="17.9199" y="25" width="12.74" height="1" rx="0.5" fill="#C9C9C9"/>
<rect x="17.9199" y="27" width="12.74" height="1" rx="0.5" fill="#C9C9C9"/>
<rect x="14" y="29" width="20.58" height="1" rx="0.5" fill="#C9C9C9"/>
<rect x="17.9199" y="31" width="12.74" height="1" rx="0.5" fill="#C9C9C9"/>
<rect x="17.9199" y="33" width="12.74" height="1" rx="0.5" fill="#C9C9C9"/>
</g>
<rect width="48" height="18" transform="translate(0 20)" fill="url(#paint1_linear_223_8036)" fill-opacity="0.1"/>
<line y1="20.75" x2="48" y2="20.75" stroke="#685CE1" stroke-width="0.5"/>
<defs>
<filter id="filter0_ii_223_8036" x="9.82422" y="3.34167" width="28.3496" height="35.3167" filterUnits="userSpaceOnUse" color-interpolation-filters="sRGB">
<feFlood flood-opacity="0" result="BackgroundImageFix"/>
<feBlend mode="normal" in="SourceGraphic" in2="BackgroundImageFix" result="shape"/>
<feColorMatrix in="SourceAlpha" type="matrix" values="0 0 0 0 0 0 0 0 0 0 0 0 0 0 0 0 0 0 127 0" result="hardAlpha"/>
<feOffset dy="-0.316667"/>
<feGaussianBlur stdDeviation="0.0791667"/>
<feComposite in2="hardAlpha" operator="arithmetic" k2="-1" k3="1"/>
<feColorMatrix type="matrix" values="0 0 0 0 0 0 0 0 0 0 0 0 0 0 0 0 0 0 0.3 0"/>
<feBlend mode="normal" in2="shape" result="effect1_innerShadow_223_8036"/>
<feColorMatrix in="SourceAlpha" type="matrix" values="0 0 0 0 0 0 0 0 0 0 0 0 0 0 0 0 0 0 127 0" result="hardAlpha"/>
<feOffset dy="0.316667"/>
<feGaussianBlur stdDeviation="0.0791667"/>
<feComposite in2="hardAlpha" operator="arithmetic" k2="-1" k3="1"/>
<feColorMatrix type="matrix" values="0 0 0 0 1 0 0 0 0 1 0 0 0 0 1 0 0 0 0.3 0"/>
<feBlend mode="normal" in2="effect1_innerShadow_223_8036" result="effect2_innerShadow_223_8036"/>
</filter>
<linearGradient id="paint0_linear_223_8036" x1="32.0234" y1="9.65234" x2="39.9531" y2="17.582" gradientUnits="userSpaceOnUse">
<stop stop-opacity="0.2"/>
<stop offset="1" stop-opacity="0"/>
</linearGradient>
<linearGradient id="paint1_linear_223_8036" x1="24" y1="0" x2="23.9661" y2="9.94682" gradientUnits="userSpaceOnUse">
<stop stop-color="#0083FF"/>
<stop offset="1" stop-color="#2997FF" stop-opacity="0"/>
</linearGradient>
</defs>
</svg>
