<svg width="58" height="58" viewBox="0 0 58 58" fill="none" xmlns="http://www.w3.org/2000/svg">
<path d="M18.4822 28.765C18.3675 28.8553 18.2041 28.8487 18.0965 28.7495C17.989 28.6503 17.9692 28.4878 18.0498 28.3661L19.2208 26.587C19.2794 26.4984 19.3808 26.4478 19.487 26.4545C19.5931 26.4611 19.6877 26.5239 19.7353 26.6192C19.7828 26.7144 19.776 26.8277 19.7174 26.9163L18.5477 28.6944C18.5297 28.7212 18.5076 28.745 18.4822 28.765Z" fill="#202536"/>
<path d="M17.5082 12.818L39.561 12.8735C40.7488 12.8764 41.7114 13.8423 41.7111 15.0308L41.7032 43.4596C41.703 44.1943 41.1075 44.7884 40.3733 44.7865L17.0198 44.7278C16.2856 44.726 15.6905 44.1289 15.6907 43.3942L15.6987 14.6235C15.6988 14.1434 15.8896 13.6835 16.2289 13.3449C16.5682 13.0064 17.0284 12.8168 17.5082 12.818Z" fill="white"/>
<path fill-rule="evenodd" clip-rule="evenodd" d="M40.3745 45.1262C40.7475 45.1277 41.1099 45.0036 41.4034 44.7739C41.8088 44.4589 42.0457 43.974 42.0453 43.4599L42.0473 15.0354C42.0475 14.3743 41.7852 13.7397 41.318 13.2711C40.8509 12.8026 40.2172 12.5385 39.5565 12.5371L17.5039 12.4815C16.317 12.4789 15.3546 13.4388 15.3533 14.6263L15.3509 43.3925C15.3521 44.3146 16.0983 45.0637 17.0199 45.068L40.3745 45.1262ZM16.0395 14.6241C16.0397 14.1719 16.248 13.7454 16.6042 13.4678C16.8594 13.264 17.1759 13.1522 17.5029 13.1503L39.5568 13.2048C40.039 13.2048 40.5017 13.3973 40.8424 13.7395C41.183 14.0818 41.3734 14.5455 41.3714 15.028L41.3641 43.4567C41.3647 43.7194 41.2608 43.9714 41.0753 44.1569C40.8897 44.3424 40.6378 44.4461 40.3753 44.4453L17.0221 44.3861C16.4759 44.3843 16.0331 43.9409 16.0318 43.3945L16.0395 14.6241Z" fill="#202536"/>
<path d="M36.7394 19.2262C36.687 19.267 36.6225 19.2893 36.556 19.2895L33.2172 19.2816C33.1107 19.2814 33.0124 19.2244 32.9591 19.132C32.9059 19.0397 32.9058 18.9261 32.959 18.8339C33.0122 18.7418 33.1106 18.6852 33.217 18.6854L36.5545 18.6944C36.6817 18.6944 36.7949 18.7753 36.8364 18.8956C36.8778 19.016 36.8383 19.1493 36.738 19.2272L36.7394 19.2262Z" fill="#202536"/>
<path d="M36.7386 22.2068C36.6866 22.2473 36.6225 22.2692 36.5566 22.2691L29.1123 22.2515C29.0335 22.2516 28.9579 22.2203 28.9022 22.1645C28.8464 22.1087 28.8152 22.033 28.8153 21.9542C28.816 21.7898 28.9489 21.657 29.1132 21.6567L36.5561 21.6753C36.6824 21.6765 36.7943 21.7572 36.8353 21.8768C36.8764 21.9964 36.8376 22.1287 36.7386 22.2068Z" fill="#202536"/>
<path d="M27.6838 22.1836C27.6316 22.2247 27.567 22.247 27.5005 22.2469L20.8598 22.2259C20.7533 22.2257 20.6549 22.1687 20.6017 22.0764C20.5484 21.984 20.5484 21.8704 20.6016 21.7783C20.6548 21.6861 20.7531 21.6295 20.8596 21.6297L27.508 21.6468C27.6343 21.648 27.7462 21.7288 27.7873 21.8483C27.8283 21.9679 27.7895 22.1002 27.6905 22.1783L27.6838 22.1836Z" fill="#202536"/>
<path d="M36.7388 25.1877C36.6866 25.2289 36.622 25.2512 36.5555 25.251L20.8478 25.2076C20.7386 25.2119 20.6357 25.1558 20.5799 25.0617C20.5241 24.9676 20.5242 24.8505 20.5803 24.7568C20.6365 24.663 20.7395 24.6078 20.8487 24.6128L36.5563 24.6562C36.6835 24.6562 36.7968 24.7371 36.8382 24.8574C36.8797 24.9778 36.8401 25.1111 36.7399 25.1891L36.7388 25.1877Z" fill="#202536"/>
<path d="M36.7366 28.1682C36.6844 28.2093 36.6198 28.2316 36.5533 28.2315L34.4242 28.2269C34.3178 28.2267 34.2194 28.1697 34.1661 28.0773C34.1129 27.985 34.1129 27.8714 34.1661 27.7792C34.2193 27.6871 34.3176 27.6305 34.424 27.6307L36.5541 27.6366C36.6804 27.6378 36.7923 27.7186 36.8334 27.8382C36.8744 27.9577 36.8356 28.09 36.7366 28.1682Z" fill="#202536"/>
<path d="M33.014 28.1601C32.9618 28.2013 32.8972 28.2236 32.8307 28.2234L20.85 28.1937C20.6855 28.1934 20.552 28.0597 20.552 27.895C20.5519 27.7304 20.6853 27.5972 20.8498 27.5975L32.8358 27.6231C32.963 27.6231 33.0763 27.704 33.1177 27.8243C33.1592 27.9447 33.1196 28.0779 33.0194 28.1559L33.014 28.1601Z" fill="#202536"/>
<path d="M35.6733 31.1481C35.6209 31.1895 35.5557 31.2114 35.4889 31.2101L20.85 31.1744C20.6907 31.167 20.5653 31.0354 20.5655 30.8759C20.5657 30.7164 20.6916 30.5857 20.8509 30.5795L35.4898 30.6152C35.617 30.6152 35.7302 30.6961 35.7717 30.8165C35.8131 30.9369 35.7736 31.0701 35.6733 31.1481Z" fill="#202536"/>
<path d="M40.7792 14.8883C40.7575 14.9046 40.7325 14.916 40.7061 14.9217C40.6137 14.9383 40.5252 14.8769 40.5083 14.7845C40.4515 14.4389 40.1889 14.163 39.8467 14.0893C39.7538 14.0741 39.6907 13.9866 39.7057 13.8937C39.7207 13.8009 39.808 13.7379 39.9009 13.7531C40.3845 13.8505 40.7587 14.2362 40.8417 14.7228C40.8535 14.7854 40.8294 14.8493 40.7792 14.8883Z" fill="#202536"/>
<path d="M28.8383 40.4684C28.6148 40.4664 28.4352 40.2837 28.4371 40.0602L28.4646 36.9153C28.4665 36.6918 28.6493 36.5122 28.8728 36.5141L40.9786 36.6198C41.2021 36.6217 41.3817 36.8045 41.3797 37.028L41.3523 40.1729C41.3503 40.3964 41.1676 40.576 40.9441 40.574L28.8383 40.4684Z" fill="#FA4E4E"/>
<path d="M32.9622 39.4455L32.9758 37.8875L33.5834 37.8928C33.7199 37.894 33.8362 37.9165 33.9323 37.9604C34.0284 38.0043 34.102 38.0673 34.1532 38.1493C34.2044 38.2314 34.2296 38.3288 34.2286 38.4416C34.2276 38.5543 34.2008 38.6513 34.1481 38.7325C34.0955 38.8121 34.0208 38.8738 33.9239 38.9175C33.8271 38.9597 33.7104 38.9802 33.5739 38.979L33.0887 38.9747L33.1898 38.871L33.1848 39.4475L32.9622 39.4455ZM33.1896 38.8933L33.0904 38.7811L33.5689 38.7853C33.7114 38.7865 33.8192 38.757 33.8925 38.6968C33.9672 38.6367 34.005 38.5509 34.006 38.4396C34.007 38.3283 33.9706 38.242 33.897 38.1805C33.8248 38.119 33.7175 38.0876 33.575 38.0864L33.0965 38.0822L33.1976 37.9718L33.1896 38.8933ZM34.7693 39.4613L34.7829 37.9033L35.4395 37.909C35.6057 37.9105 35.7515 37.9444 35.8771 38.0108C36.0041 38.0772 36.102 38.1693 36.1707 38.2871C36.2409 38.405 36.2754 38.541 36.274 38.6954C36.2727 38.8497 36.2359 38.9851 36.1636 39.1017C36.0929 39.2184 35.9934 39.3087 35.8652 39.3729C35.7385 39.4371 35.5921 39.4685 35.4259 39.467L34.7693 39.4613ZM34.9936 39.2696L35.4142 39.2733C35.5433 39.2744 35.6548 39.2509 35.7487 39.2027C35.8441 39.1546 35.9182 39.087 35.9709 38.9999C36.0236 38.9113 36.0504 38.8092 36.0514 38.6934C36.0525 38.5762 36.0274 38.4736 35.9762 38.3856C35.925 38.2976 35.8522 38.2287 35.7577 38.1789C35.6646 38.1291 35.5535 38.1037 35.4244 38.1025L35.0038 38.0989L34.9936 39.2696ZM37.0382 38.6597L37.8417 38.6668L37.84 38.8582L37.0365 38.8512L37.0382 38.6597ZM37.0533 39.4812L36.8307 39.4793L36.8443 37.9213L37.9438 37.9309L37.9421 38.1245L37.0652 38.1169L37.0533 39.4812Z" fill="white"/>
<path d="M21.4658 22.0482C21.3581 22.0126 21.2922 21.9039 21.3104 21.7916C21.3286 21.6794 21.4254 21.5969 21.5388 21.5969L29.8305 21.5809C29.9168 21.5746 29.9992 21.6171 30.0442 21.6911C30.0892 21.765 30.0892 21.8579 30.0442 21.932C29.9992 22.006 29.9168 22.0487 29.8305 22.0427L21.5409 22.0524C21.5158 22.0558 21.4903 22.0543 21.4658 22.0482Z" fill="#202536"/>
<rect width="41.6834" height="32.9825" transform="translate(7.69336 8.90332)" fill="url(#paint0_linear_137_4028)" fill-opacity="0.1"/>
<path fill-rule="evenodd" clip-rule="evenodd" d="M48.517 40.8485C48.5265 40.8854 48.5316 40.9242 48.5316 40.9641C48.5316 41.2189 48.3251 41.4254 48.0703 41.4254H43.4574C43.2026 41.4254 42.9961 41.2189 42.9961 40.9641C42.9961 40.7093 43.2026 40.5028 43.4574 40.5028H47.6089V36.1205C47.6089 35.8657 47.8154 35.6592 48.0702 35.6592C48.3249 35.6592 48.5315 35.8657 48.5315 36.1205L48.5315 40.7334C48.5315 40.7731 48.5264 40.8117 48.517 40.8485Z" fill="#685CE1"/>
<path fill-rule="evenodd" clip-rule="evenodd" d="M48.0651 9.36489C48.0668 9.36487 48.0685 9.36486 48.0702 9.36486C48.0971 9.36486 48.1234 9.36717 48.1491 9.37158C48.3663 9.40895 48.5316 9.59826 48.5316 9.82619C48.5316 9.83028 48.5316 9.83436 48.5315 9.83843L48.5315 14.4391C48.5315 14.6939 48.3249 14.9004 48.0702 14.9004C47.8154 14.9004 47.6089 14.6939 47.6089 14.4391V10.2875H43.4574C43.2026 10.2875 42.9961 10.081 42.9961 9.82619C42.9961 9.57142 43.2026 9.36489 43.4574 9.36489H48.0651Z" fill="#685CE1"/>
<path fill-rule="evenodd" clip-rule="evenodd" d="M8.61698 40.7213C8.61687 40.7254 8.61682 40.7294 8.61682 40.7335C8.61682 40.9883 8.82335 41.1948 9.07811 41.1948H13.691C13.9458 41.1948 14.1523 40.9883 14.1523 40.7335C14.1523 40.4788 13.9458 40.2722 13.691 40.2722H9.53956V36.1205C9.53956 35.8657 9.33304 35.6592 9.07827 35.6592C8.8235 35.6592 8.61698 35.8657 8.61698 36.1205L8.61698 40.7213Z" fill="#685CE1"/>
<path fill-rule="evenodd" clip-rule="evenodd" d="M8.63142 9.94264C8.62189 9.9057 8.61682 9.86697 8.61682 9.82705C8.61682 9.57228 8.82335 9.36576 9.07811 9.36576H13.691C13.9458 9.36576 14.1523 9.57228 14.1523 9.82705C14.1523 10.0818 13.9458 10.2883 13.691 10.2883H9.53956V14.6705C9.53956 14.9253 9.33304 15.1318 9.07827 15.1318C8.8235 15.1318 8.61698 14.9253 8.61698 14.6705L8.61698 10.0576C8.61698 10.0179 8.62199 9.97939 8.63142 9.94264Z" fill="#685CE1"/>
<defs>
<linearGradient id="paint0_linear_137_4028" x1="20.8417" y1="0" x2="20.8417" y2="32.9825" gradientUnits="userSpaceOnUse">
<stop stop-color="#2997FF"/>
<stop offset="1" stop-color="#2997FF" stop-opacity="0"/>
</linearGradient>
</defs>
</svg>
