<svg width="27" height="27" viewBox="0 0 27 27" fill="none" xmlns="http://www.w3.org/2000/svg">
<g filter="url(#filter0_ii_137_4819)">
<path fill-rule="evenodd" clip-rule="evenodd" d="M16.4881 2.22949L21.9266 7.668V22.2445C21.9266 23.2057 21.1474 23.985 20.1862 23.985H6.04512C5.08391 23.985 4.30469 23.2057 4.30469 22.2445V3.96993C4.30469 3.00871 5.08391 2.22949 6.04512 2.22949H16.4881Z" fill="#FA4E4E"/>
</g>
<path d="M16.6489 16.8804C15.9148 16.8259 15.208 16.5533 14.6371 16.0625C13.5224 16.3078 12.4619 16.6622 11.4016 17.0985C10.5589 18.5979 9.77037 19.3612 9.09065 19.3612C8.95468 19.3612 8.79165 19.334 8.68287 19.2522C8.38373 19.1159 8.2207 18.816 8.2207 18.5161C8.2207 18.2707 8.27509 17.5892 10.8579 16.4714C11.4561 15.3809 11.9182 14.2632 12.2989 13.091C11.9726 12.4367 11.2658 10.8282 11.755 10.0104C11.9182 9.71049 12.2445 9.54691 12.598 9.57424C12.8698 9.57424 13.1417 9.71049 13.3048 9.92859C13.6583 10.4193 13.6311 11.4553 13.1688 12.982C13.604 13.7987 14.1738 14.536 14.8545 15.1629C15.4256 15.0538 15.9964 14.972 16.5673 14.972C17.8452 14.9992 18.0355 15.599 18.0083 15.9535C18.0083 16.8804 17.1111 16.8804 16.6489 16.8804ZM9.0364 18.5705L9.11798 18.5433C9.49856 18.4071 9.79757 18.1345 10.0151 17.78C9.60721 17.9436 9.28101 18.2162 9.0364 18.5707V18.5705ZM12.6523 10.3921H12.5707C12.5435 10.3921 12.4891 10.3921 12.4619 10.4193C12.3532 10.8827 12.4347 11.3734 12.6251 11.8096C12.7883 11.3462 12.7883 10.8555 12.6523 10.3921ZM12.8427 14.3451L12.8155 14.3995L12.7883 14.3723C12.5435 14.9994 12.2716 15.6263 11.9726 16.2261L12.027 16.1989V16.2533C12.6316 16.0341 13.249 15.852 13.8758 15.7081L13.8486 15.6809H13.9302C13.5222 15.2719 13.1417 14.8085 12.8427 14.3451ZM16.5401 15.7899C16.2954 15.7899 16.078 15.7899 15.8332 15.8443C16.1052 15.9807 16.3771 16.0352 16.6489 16.0625C16.8393 16.0897 17.0296 16.0625 17.1927 16.008C17.1927 15.9262 17.0839 15.7899 16.5401 15.7899Z" fill="white"/>
<path d="M21.4167 7.1582H16.998L21.927 12.0872L21.927 7.6681L21.4167 7.1582Z" fill="url(#paint0_linear_137_4819)"/>
<path d="M18.2274 7.66797L21.9258 7.66797L16.4869 2.2291L16.4869 5.92753C16.4869 6.88875 17.2661 7.66797 18.2274 7.66797Z" fill="#FDB8B8"/>
<defs>
<filter id="filter0_ii_137_4819" x="4.30469" y="2.12071" width="17.6211" height="21.9734" filterUnits="userSpaceOnUse" color-interpolation-filters="sRGB">
<feFlood flood-opacity="0" result="BackgroundImageFix"/>
<feBlend mode="normal" in="SourceGraphic" in2="BackgroundImageFix" result="shape"/>
<feColorMatrix in="SourceAlpha" type="matrix" values="0 0 0 0 0 0 0 0 0 0 0 0 0 0 0 0 0 0 127 0" result="hardAlpha"/>
<feOffset dy="-0.217555"/>
<feGaussianBlur stdDeviation="0.0543886"/>
<feComposite in2="hardAlpha" operator="arithmetic" k2="-1" k3="1"/>
<feColorMatrix type="matrix" values="0 0 0 0 0 0 0 0 0 0 0 0 0 0 0 0 0 0 0.3 0"/>
<feBlend mode="normal" in2="shape" result="effect1_innerShadow_137_4819"/>
<feColorMatrix in="SourceAlpha" type="matrix" values="0 0 0 0 0 0 0 0 0 0 0 0 0 0 0 0 0 0 127 0" result="hardAlpha"/>
<feOffset dy="0.217555"/>
<feGaussianBlur stdDeviation="0.0543886"/>
<feComposite in2="hardAlpha" operator="arithmetic" k2="-1" k3="1"/>
<feColorMatrix type="matrix" values="0 0 0 0 1 0 0 0 0 1 0 0 0 0 1 0 0 0 0.3 0"/>
<feBlend mode="normal" in2="effect1_innerShadow_137_4819" result="effect2_innerShadow_137_4819"/>
</filter>
<linearGradient id="paint0_linear_137_4819" x1="18.1028" y1="6.05343" x2="23.0318" y2="10.9824" gradientUnits="userSpaceOnUse">
<stop stop-opacity="0.2"/>
<stop offset="1" stop-opacity="0"/>
</linearGradient>
</defs>
</svg>
