<svg width="18" height="23" viewBox="0 0 18 23" fill="none" xmlns="http://www.w3.org/2000/svg">
<path d="M8.37223 16.5028H9.62692V9.41012H8.37223V16.5028ZM8.99958 7.43149C9.21873 7.43149 9.40191 7.35746 9.54913 7.20941C9.69718 7.06135 9.7712 6.87817 9.7712 6.65986C9.7712 6.4407 9.69718 6.2571 9.54913 6.10905C9.40191 5.961 9.21873 5.88697 8.99958 5.88697C8.78042 5.88697 8.59724 5.961 8.45002 6.10905C8.30197 6.2571 8.22795 6.4407 8.22795 6.65986C8.22795 6.87817 8.30197 7.06135 8.45002 7.20941C8.59724 7.35746 8.78042 7.43149 8.99958 7.43149ZM8.99958 22.44C6.47934 21.6914 4.38527 20.1644 2.71738 17.8592C1.05032 15.553 0.216797 12.9554 0.216797 10.0663V3.281L8.99958 0L17.7824 3.281V10.0663C17.7824 12.9554 16.9488 15.5526 15.2818 17.8579C13.6139 20.164 11.5198 21.6914 8.99958 22.44ZM8.99958 21.1075C11.1744 20.4174 12.9727 19.0373 14.3947 16.9671C15.8167 14.8968 16.5277 12.5966 16.5277 10.0663V4.13794L8.99958 1.34L1.47148 4.13794V10.0663C1.47148 12.5966 2.18247 14.8968 3.60444 16.9671C5.02641 19.0373 6.82479 20.4174 8.99958 21.1075Z" fill="black"/>
</svg>
