<svg width="176" height="121" viewBox="0 0 176 121" fill="none" xmlns="http://www.w3.org/2000/svg">
<g clip-path="url(#clip0_137_7161)">
<path style="mix-blend-mode:multiply" d="M14.4958 119.127C-10.2366 99.046 3.19618 79.5947 7.69272 66.7905C13.2087 51.0848 -6.96363 27.6491 14.4958 17.0311C39.6806 4.56957 69.2937 -1.16205 110.261 18.8072C151.228 38.7764 171.381 46.8087 175.138 76.1878C178.896 105.567 158.072 119.127 158.072 119.127H14.4958Z" fill="url(#paint0_linear_137_7161)"/>
<path d="M168.372 120.458L9.0741 120.458C8.31264 120.458 7.69463 119.84 7.69463 119.079V118.722C7.69463 117.96 8.31264 117.342 9.0741 117.342L168.372 117.342C169.134 117.342 169.752 117.96 169.752 118.722V119.079C169.752 119.84 169.134 120.458 168.372 120.458H168.372Z" fill="#685CE1"/>
<path d="M123.238 0H27.9042C23.8322 0 20.5312 3.04871 20.5312 6.80882V67.7475C20.5312 71.5076 23.8322 74.5563 27.9042 74.5563H37.7925L36.4554 92.7398L54.2201 74.5563H123.238C127.31 74.5563 130.611 71.5076 130.611 67.7475V6.80882C130.611 3.04871 127.31 0 123.238 0Z" fill="#685CE1"/>
<path d="M52.4141 42.7561H36.5438C35.4936 42.7561 34.6426 41.9051 34.6426 40.8548C34.6426 39.8046 35.4936 38.9536 36.5438 38.9536H52.4141C53.4643 38.9536 54.3153 39.8046 54.3153 40.8548C54.3153 41.9051 53.4643 42.7561 52.4141 42.7561Z" fill="#F3FFFF"/>
<path d="M116.043 42.7561H63.6415C62.5912 42.7561 61.7402 41.9051 61.7402 40.8548C61.7402 39.8046 62.5912 38.9536 63.6415 38.9536H116.043C117.093 38.9536 117.944 39.8046 117.944 40.8548C117.944 41.9051 117.093 42.7561 116.043 42.7561Z" fill="#F3FFFF"/>
<path d="M75.7747 52.7878H36.5438C35.4936 52.7878 34.6426 51.9368 34.6426 50.8866C34.6426 49.8363 35.4936 48.9854 36.5438 48.9854H75.7747C76.8249 48.9854 77.6759 49.8363 77.6759 50.8866C77.6759 51.9368 76.8249 52.7878 75.7747 52.7878Z" fill="#F3FFFF"/>
<path d="M116.042 32.7234H36.5438C35.4936 32.7234 34.6426 31.8724 34.6426 30.8221C34.6426 29.7719 35.4936 28.9209 36.5438 28.9209H116.042C117.092 28.9209 117.943 29.7719 117.943 30.8221C117.943 31.8724 117.092 32.7234 116.042 32.7234Z" fill="#F3FFFF"/>
<path d="M116.041 52.7878H85.87C84.8197 52.7878 83.9688 51.9368 83.9688 50.8866C83.9688 49.8363 84.8197 48.9854 85.87 48.9854H116.04C117.091 48.9854 117.942 49.8363 117.942 50.8866C117.942 51.9368 117.091 52.7878 116.041 52.7878Z" fill="#F3FFFF"/>
<path d="M116.042 62.8205H36.5438C35.4936 62.8205 34.6426 61.9696 34.6426 60.9193C34.6426 59.869 35.4936 59.0181 36.5438 59.0181H116.042C117.092 59.0181 117.943 59.869 117.943 60.9193C117.943 61.9696 117.092 62.8205 116.041 62.8205H116.042Z" fill="#F3FFFF"/>
<g style="mix-blend-mode:multiply">
<path d="M110.789 8.03418L112.999 12.5134L117.944 13.2315L114.366 16.7182L115.211 21.6422L110.789 19.3174L106.368 21.6422L107.212 16.7182L103.635 13.2315L108.578 12.5134L110.789 8.03418Z" fill="#ACACAC"/>
</g>
<path d="M41.797 8.03418L44.0082 12.5134L48.9514 13.2315L45.3742 16.7182L46.2184 21.6422L41.797 19.3174L37.3755 21.6422L38.2198 16.7182L34.6426 13.2315L39.5868 12.5134L41.797 8.03418Z" fill="#FCC13F"/>
<g style="mix-blend-mode:screen">
<path d="M44.8076 14.8218C41.885 14.8218 39.3224 16.3765 37.8775 18.7138L37.375 21.6412L41.7965 19.3164L46.2179 21.6412L45.3737 16.7182L47.0054 15.1279C46.3055 14.9306 45.5691 14.8227 44.8076 14.8227V14.8218Z" fill="#5C5C5C"/>
</g>
<path d="M59.045 8.03418L61.2562 12.5134L66.1995 13.2315L62.6222 16.7182L63.4665 21.6422L59.045 19.3174L54.6236 21.6422L55.4688 16.7182L51.8906 13.2315L56.8348 12.5134L59.045 8.03418Z" fill="#FCC13F"/>
<g style="mix-blend-mode:screen">
<path d="M62.0557 14.8218C59.1331 14.8218 56.5705 16.3765 55.1256 18.7138L54.623 21.6412L59.0445 19.3164L63.466 21.6412L62.6217 16.7182L64.2534 15.1279C63.5536 14.9306 62.8171 14.8227 62.0557 14.8227V14.8218Z" fill="#5C5C5C"/>
</g>
<path d="M76.2931 8.03418L78.5033 12.5134L83.4465 13.2315L79.8693 16.7182L80.7145 21.6422L76.2931 19.3174L71.8707 21.6422L72.7159 16.7182L69.1387 13.2315L74.0819 12.5134L76.2931 8.03418Z" fill="#FCC13F"/>
<g style="mix-blend-mode:screen">
<path d="M79.3037 14.8218C76.3811 14.8218 73.8185 16.3765 72.3736 18.7138L71.8711 21.6412L76.2925 19.3164L80.714 21.6412L79.8697 16.7182L81.5014 15.1279C80.8016 14.9306 80.0652 14.8227 79.3037 14.8227V14.8218Z" fill="#5C5C5C"/>
</g>
<g style="mix-blend-mode:multiply">
<path d="M93.5411 8.03418L95.7514 12.5134L100.695 13.2315L97.1174 16.7182L97.9626 21.6422L93.5411 19.3174L89.1197 21.6422L89.9639 16.7182L86.3867 13.2315L91.3299 12.5134L93.5411 8.03418Z" fill="#ACACAC"/>
</g>
<path d="M154.823 112.321C154.823 112.321 155.513 113.004 155.529 113.254C155.544 113.504 155.59 116.186 155.309 116.436C155.027 116.687 154.2 116.864 154.466 117.146C154.667 117.359 156.213 117.313 157.238 117.257C157.537 117.24 157.912 114.821 158.03 114.466C158.202 113.95 158.821 112.825 158.665 112.465C158.589 112.29 158.023 111.891 157.509 111.554C156.969 111.201 156.451 110.412 156.451 110.412L154.823 112.321Z" fill="#F7A491"/>
<path d="M145.598 113.996C145.598 113.996 146.215 115.763 146.216 115.768C146.262 116.048 146.442 116.741 146.442 116.995C146.442 117.951 142.188 116.183 143.141 115.76C143.228 115.721 143.498 115.415 143.526 115.09C143.569 114.588 143.168 113.959 143.168 113.959L145.597 113.997L145.598 113.996Z" fill="#F7A491"/>
<path d="M138.496 80.5806C138.496 80.5806 138.175 83.5051 138.175 83.5523C138.175 88.6774 137.577 98.688 137.768 99.6516C138.233 102.001 143.311 114.792 143.311 114.792L145.942 114.416L142.418 99.308L143.714 93.5311L145.549 82.1112L138.495 80.5815L138.496 80.5806Z" fill="#2D2861"/>
<path d="M148.412 83.1384L148.925 86.1409L150.315 98.4984L157.111 111.039C157.111 111.039 156.089 112.608 154.992 112.854L145.345 100.18L140.117 84.3128L140.3 80.7876L148.412 83.1374V83.1384Z" fill="#352E73"/>
<path d="M137.504 48.7297C137.421 48.8914 137.084 49.3226 137.084 49.3226C137.084 49.3226 137.853 57.5446 137.913 58.0587L140.251 61.5964L137.632 63.5179C137.632 63.5179 134.965 59.2456 134.941 59.0377C134.917 58.8298 135.026 52.6727 135.026 52.6727C135.026 52.6727 135.222 49.4776 135.222 49.3188C135.222 49.16 134.752 48.1299 134.659 47.715C134.573 47.3319 134.549 46.1478 134.549 46.1478L134.744 45.8658L135.653 45.6665L136.295 45.7397C136.295 45.7397 137.779 46.3394 137.837 46.529C137.863 46.6147 137.787 47.7555 137.7 48.154C137.667 48.3013 137.573 48.592 137.504 48.7268V48.7297Z" fill="#F7A491"/>
<path d="M137.217 47.1837C137.217 47.1837 137.07 47.5322 136.844 47.8017C136.617 48.0713 136.171 48.0039 135.908 47.6545C135.645 47.306 135.547 46.9565 135.547 46.9565L137.217 47.1828V47.1837Z" fill="#FE875E"/>
<path d="M140.941 28.0913L140.499 35.4421L146.304 39.9733L139.177 41.8245L136.662 48.7459L132.697 42.5397L125.338 42.2865L130.015 36.5992L127.982 29.5208L134.837 32.2124L140.941 28.0913Z" fill="#FCC13F"/>
<g style="mix-blend-mode:screen">
<path d="M139.836 38.9835C136.094 36.8483 131.676 36.9677 128.119 38.9046L125.338 42.2864L132.697 42.5395L136.662 48.7457L139.177 41.8243L142.429 40.9791C141.677 40.2147 140.812 39.539 139.837 38.9825L139.836 38.9835Z" fill="#5C5C5C"/>
</g>
<path d="M137.224 47.2114C137.213 47.0323 137.242 46.6559 137.242 46.6559C137.242 46.6559 136.862 45.9118 136.948 45.8617C137.252 45.6875 137.845 46.5259 137.845 46.5259C137.845 46.5259 137.258 47.7928 137.224 47.2114Z" fill="#F7A491"/>
<path d="M134.68 47.6993C134.68 47.6993 134.267 46.1562 134.445 45.7211C134.558 45.4419 136.084 44.8393 136.28 45.1088C136.459 45.3543 134.994 45.8635 135.039 45.9232C135.112 46.0214 136.146 45.3177 136.335 45.4515C136.548 45.6026 135.337 46.3391 135.393 46.4556C135.428 46.5297 136.105 45.825 136.175 46.1369C136.247 46.4488 134.679 47.6993 134.679 47.6993H134.68Z" fill="#F7A491"/>
<path d="M138.45 78.7988L138.984 71.4922C139.155 69.6882 139.221 68.2481 139.076 67.7283C138.765 66.6222 136.494 62.9054 136.494 62.9054C136.494 62.9054 138.673 60.4824 140.214 60.4824C140.214 60.4824 141.924 63.7766 143.957 64.0673C145.989 64.3571 145.552 64.3706 146.38 64.4572C147.349 64.5592 148.268 64.7142 149.013 65.0252C150.565 65.6721 149.397 71.4836 149.22 72.4289C148.952 73.8575 149.453 85.8945 149.453 85.8945C149.453 85.8945 145 86.8975 138.17 83.5543L138.45 78.7988Z" fill="#FC008B"/>
<path d="M145.963 61.2631L146.445 64.5187C146.445 64.5187 144.659 68.3116 143.588 67.9795C142.689 67.7003 143.253 64.229 143.253 64.229C143.253 64.229 143.732 62.4904 143.585 61.5798C143.438 60.6691 145.963 61.2631 145.963 61.2631Z" fill="#F7A491"/>
<path d="M145.617 62.248C145.156 62.48 144.247 62.7968 143.537 62.8738C143.604 62.4184 143.644 61.9361 143.586 61.58C143.519 61.1593 144.019 61.0601 144.579 61.0746C145.31 61.141 145.963 61.2633 145.963 61.2633L146.055 61.889C145.916 62.0459 145.769 62.1701 145.616 62.2471L145.617 62.248Z" fill="#FE875E"/>
<path d="M148.284 57.5081C148.36 57.5081 147.557 61.1449 146.316 61.7707C145.074 62.3964 143.222 62.0701 142.874 61.091C142.49 60.0081 143.892 56.297 145.638 55.8263C147.384 55.3546 148.284 57.509 148.284 57.509V57.5081Z" fill="#F7A491"/>
<path d="M157.811 69.314L156.608 76.5791L161.91 81.6888L154.629 82.7891L151.407 89.4122L148.11 82.8267L140.816 81.8092L146.061 76.6388L144.775 69.3881L151.312 72.7776L157.811 69.314Z" fill="#FCC13F"/>
<g style="mix-blend-mode:screen">
<path d="M155.581 80.0319C152.08 77.5194 147.674 77.1786 143.934 78.7343L140.816 81.808L148.11 82.8256L151.407 89.411L154.629 82.789L157.952 82.2874C157.283 81.449 156.494 80.6865 155.582 80.0319H155.581Z" fill="#5C5C5C"/>
</g>
<path d="M153.331 71.0332C153.331 71.0332 154.921 73.1876 155.02 73.5669C155.118 73.9462 154.42 82.894 154.383 83.6834C154.383 83.6834 154.677 84.6383 154.842 85.2438C155.008 85.8493 155.081 86.2999 154.998 86.4192C154.916 86.5386 154.659 86.4558 154.557 86.6859C154.456 86.915 154.163 86.8784 154.071 86.9246C153.98 86.9708 153.709 87.3097 153.607 87.301C153.506 87.2924 153.342 87.2731 153.254 87.3289C153.166 87.3838 153.02 87.5359 152.813 87.4984C152.607 87.4618 152.504 87.3434 152.504 87.3434C152.504 87.3434 152.666 85.6982 152.546 85.703C152.427 85.7078 152.125 85.8455 152.083 85.9466C152.042 86.0477 152.06 86.2729 152.019 86.373C151.978 86.4741 151.84 86.5704 151.716 86.529C151.592 86.4876 151.61 85.9235 151.61 85.9235C151.61 85.9235 151.628 85.4643 151.794 85.1938C152.366 84.2552 152.491 84.3871 152.565 84.2668C152.601 84.2071 152.556 81.889 152.556 81.889C152.556 81.889 152.327 75.3054 152.302 74.9502L150.625 72.4656L153.329 71.0332H153.331Z" fill="#F8A492"/>
<path d="M153.993 71.0583L150.64 73.5805C150.64 73.5805 148.809 70.8186 147.826 69.8348C146.595 68.6036 148.326 64.6914 149.068 65.0427C150.895 65.9082 153.993 71.0583 153.993 71.0583Z" fill="#FC008B"/>
<path d="M146.847 54.1666C147.838 54.7769 148.294 55.6828 148.447 56.0534C148.913 56.2893 149.476 56.7995 149.746 58.1732C150.079 59.8626 148.896 61.1651 147.644 61.5569C146.391 61.9487 146.179 62.8333 146.179 62.8333L146.055 61.8803C146.055 61.8803 146.334 61.0515 146.753 60.6366C147.172 60.2217 146.554 59.6171 146.5 59.1233C146.458 58.744 146.721 58.0057 146.664 57.3828L146.512 56.8668C146.512 56.8668 146.015 56.0755 145.281 55.9783C144.546 55.8801 145.574 53.383 146.847 54.1666Z" fill="#2D2861"/>
<path d="M146.32 59.7567C146.157 60.1774 146.223 60.5942 146.468 60.6886C146.712 60.7829 147.042 60.5191 147.204 60.0994C147.366 59.6797 147.3 59.2619 147.056 59.1676C146.812 59.0732 146.482 59.337 146.321 59.7567H146.32Z" fill="#F7A491"/>
<path d="M157.476 111.536C157.476 111.536 155.887 116.072 155.264 116.291C155.099 116.349 154.306 116.496 154.157 116.852C154.112 116.959 154.157 117.317 154.157 117.317H157.47C157.47 117.317 157.889 115.319 158.055 114.441C158.055 114.441 158.932 112.295 158.834 112.1C158.737 111.904 157.476 111.537 157.476 111.537V111.536Z" fill="#2D2861"/>
<path d="M146.684 117.309L146.196 115.749C146.196 115.749 145.173 116.188 144.662 116.115C144.151 116.042 143.152 115.749 143.152 115.749C141.11 116.431 139.437 116.761 139.741 117.309H146.684Z" fill="#2D2861"/>
</g>
<defs>
<linearGradient id="paint0_linear_137_7161" x1="88.8586" y1="3.14581" x2="87.508" y2="111.21" gradientUnits="userSpaceOnUse">
<stop stop-color="#685CE1"/>
<stop offset="0.99" stop-color="white"/>
</linearGradient>
<clipPath id="clip0_137_7161">
<rect width="175.591" height="120.458" fill="white"/>
</clipPath>
</defs>
</svg>
