<svg width="58" height="58" viewBox="0 0 58 58" fill="none" xmlns="http://www.w3.org/2000/svg">
<path d="M18.5259 28.9495C18.4096 29.041 18.2439 29.0343 18.1348 28.9337C18.0258 28.8331 18.0057 28.6684 18.0874 28.5449L19.2749 26.7407C19.3343 26.6508 19.4372 26.5996 19.5448 26.6064C19.6525 26.6131 19.7484 26.6767 19.7966 26.7733C19.8448 26.87 19.8379 26.9848 19.7785 27.0747L18.5924 28.8778C18.5741 28.905 18.5517 28.9292 18.5259 28.9495Z" fill="#202536"/>
<path d="M17.5396 12.7771L39.9034 12.8333C41.108 12.8363 42.0842 13.8158 42.0838 15.021L42.0758 43.8508C42.0756 44.5959 41.4717 45.1983 40.7271 45.1964L17.0443 45.1369C16.2997 45.135 15.6962 44.5295 15.6964 43.7845L15.7046 14.608C15.7047 14.1212 15.8981 13.6548 16.2422 13.3114C16.5864 12.9681 17.053 12.7758 17.5396 12.7771Z" fill="white"/>
<path fill-rule="evenodd" clip-rule="evenodd" d="M40.7283 45.5414C41.1066 45.543 41.4741 45.4172 41.7717 45.1841C42.1828 44.8648 42.4231 44.373 42.4227 43.8517L42.4247 15.0263C42.4249 14.3559 42.1589 13.7123 41.6851 13.2371C41.2114 12.7619 40.5688 12.4942 39.8988 12.4927L17.5351 12.4364C16.3315 12.4337 15.3555 13.4071 15.3542 14.6114L15.3518 43.7833C15.3529 44.7184 16.1098 45.4781 17.0443 45.4824L40.7283 45.5414ZM16.0494 14.6091C16.0496 14.1505 16.2608 13.718 16.6219 13.4365C16.8808 13.2298 17.2018 13.1164 17.5333 13.1145L39.8983 13.1698C40.3873 13.1698 40.8565 13.365 41.202 13.712C41.5474 14.0591 41.7405 14.5294 41.7385 15.0187L41.731 43.8483C41.7317 44.1148 41.6263 44.3703 41.4382 44.5584C41.25 44.7465 40.9946 44.8517 40.7283 44.8509L17.0457 44.7908C16.4919 44.789 16.0429 44.3394 16.0415 43.7853L16.0494 14.6091Z" fill="#202536"/>
<path d="M37.041 19.2753C36.9879 19.3167 36.9225 19.3392 36.8551 19.3395L33.4692 19.3314C33.3612 19.3312 33.2615 19.2734 33.2075 19.1798C33.1535 19.0861 33.1534 18.9709 33.2074 18.8775C33.2613 18.7841 33.3611 18.7266 33.469 18.7268L36.8536 18.7359C36.9825 18.736 37.0974 18.818 37.1394 18.94C37.1815 19.0621 37.1414 19.1972 37.0397 19.2763L37.041 19.2753Z" fill="#202536"/>
<path d="M37.0395 22.298C36.9868 22.3391 36.9218 22.3613 36.855 22.3611L29.3057 22.3433C29.2258 22.3435 29.1491 22.3117 29.0926 22.2551C29.036 22.1985 29.0044 22.1217 29.0045 22.0418C29.0052 21.8751 29.14 21.7405 29.3066 21.7401L36.8545 21.759C36.9825 21.7602 37.096 21.8421 37.1377 21.9633C37.1793 22.0846 37.1399 22.2187 37.0395 22.298Z" fill="#202536"/>
<path d="M27.8582 22.2748C27.8053 22.3166 27.7398 22.3392 27.6723 22.339L20.9379 22.3178C20.83 22.3176 20.7302 22.2597 20.6762 22.1661C20.6222 22.0725 20.6222 21.9572 20.6761 21.8638C20.7301 21.7704 20.8298 21.713 20.9377 21.7132L27.68 21.7305C27.808 21.7317 27.9215 21.8136 27.9631 21.9349C28.0047 22.0561 27.9654 22.1903 27.865 22.2695L27.8582 22.2748Z" fill="#202536"/>
<path d="M37.0413 25.3213C36.9883 25.363 36.9228 25.3856 36.8553 25.3855L20.9261 25.3415C20.8154 25.3458 20.7111 25.2889 20.6544 25.1935C20.5978 25.098 20.598 24.9793 20.6549 24.8842C20.7118 24.7892 20.8163 24.7331 20.927 24.7382L36.8562 24.7822C36.9852 24.7822 37.1 24.8643 37.1421 24.9863C37.1841 25.1084 37.144 25.2435 37.0423 25.3226L37.0413 25.3213Z" fill="#202536"/>
<path d="M37.0388 28.3442C36.9859 28.3859 36.9203 28.4085 36.8529 28.4084L34.6938 28.4037C34.5858 28.4035 34.4861 28.3457 34.4321 28.252C34.3781 28.1584 34.378 28.0432 34.432 27.9497C34.4859 27.8563 34.5857 27.7989 34.6936 27.7991L36.8538 27.8051C36.9818 27.8063 37.0953 27.8883 37.1369 28.0095C37.1785 28.1307 37.1392 28.2649 37.0388 28.3442Z" fill="#202536"/>
<path d="M33.2637 28.3355C33.2108 28.3772 33.1453 28.3998 33.0778 28.3997L20.9282 28.3695C20.7613 28.3692 20.626 28.2336 20.6259 28.0666C20.6259 27.8997 20.7611 27.7646 20.928 27.7649L33.083 27.7908C33.212 27.7909 33.3269 27.8729 33.3689 27.995C33.4109 28.117 33.3709 28.2522 33.2692 28.3312L33.2637 28.3355Z" fill="#202536"/>
<path d="M35.9584 31.3655C35.9053 31.4075 35.8392 31.4297 35.7714 31.4284L20.926 31.3922C20.7645 31.3847 20.6373 31.2512 20.6375 31.0895C20.6377 30.9277 20.7654 30.7952 20.9269 30.7889L35.7723 30.8251C35.9012 30.8252 36.0161 30.9072 36.0581 31.0293C36.1002 31.1513 36.0601 31.2865 35.9584 31.3655Z" fill="#202536"/>
<path d="M41.1371 14.877C41.1151 14.8935 41.0898 14.905 41.063 14.9108C40.9693 14.9277 40.8796 14.8654 40.8624 14.7717C40.8048 14.4212 40.5385 14.1415 40.1914 14.0667C40.0973 14.0513 40.0333 13.9625 40.0485 13.8684C40.0637 13.7742 40.1523 13.7104 40.2464 13.7258C40.7369 13.8246 41.1164 14.2157 41.2005 14.7091C41.2125 14.7726 41.188 14.8374 41.1371 14.877Z" fill="#202536"/>
<path d="M29.0276 40.8171C28.8009 40.8151 28.6188 40.6297 28.6208 40.4031L28.6486 37.2139C28.6506 36.9872 28.8359 36.8051 29.0626 36.807L41.3391 36.9142C41.5658 36.9162 41.7479 37.1015 41.7459 37.3281L41.7181 40.5174C41.7161 40.744 41.5308 40.9262 41.3041 40.9242L29.0276 40.8171Z" fill="#4876F9"/>
<path d="M32.4085 39.7446L31.8941 38.16L32.1266 38.162L32.5992 39.6243L32.4818 39.6233L32.9979 38.1696L33.2055 38.1714L33.6849 39.6338L33.572 39.6328L34.0768 38.179L34.2912 38.1809L33.7492 39.7563L33.5122 39.7542L33.0636 38.3982L33.1245 38.3987L32.65 39.7467L32.4085 39.7446ZM35.1695 39.7822C35.0491 39.7812 34.9425 39.7539 34.8497 39.7004C34.7569 39.6469 34.6837 39.5741 34.6304 39.4818C34.577 39.388 34.5509 39.2825 34.5519 39.1651C34.5529 39.0462 34.5809 38.9411 34.6359 38.8498C34.6909 38.7585 34.7652 38.6877 34.859 38.6373C34.9527 38.5855 35.0598 38.5601 35.1802 38.5611C35.299 38.5621 35.4049 38.5894 35.4977 38.6429C35.5921 38.6949 35.6652 38.767 35.7171 38.8592C35.7704 38.95 35.7966 39.0556 35.7956 39.1759C35.7945 39.2948 35.7665 39.3999 35.7115 39.4912C35.6581 39.5826 35.5837 39.6541 35.4885 39.706C35.3947 39.7578 35.2884 39.7832 35.1695 39.7822ZM35.1712 39.5926C35.2479 39.5933 35.3165 39.5766 35.377 39.5425C35.439 39.5084 35.4876 39.4599 35.5227 39.397C35.5579 39.3326 35.5759 39.2583 35.5766 39.174C35.5774 39.0883 35.5607 39.0144 35.5266 38.9524C35.4926 38.8889 35.4448 38.8396 35.3835 38.8044C35.3236 38.7693 35.2553 38.7514 35.1785 38.7507C35.1018 38.75 35.0331 38.7667 34.9727 38.8008C34.9122 38.8349 34.8636 38.8834 34.8269 38.9463C34.7903 39.0077 34.7716 39.0812 34.7708 39.167C34.7701 39.2513 34.7875 39.3259 34.823 39.3909C34.8586 39.4544 34.9063 39.5038 34.9662 39.5389C35.0261 39.574 35.0944 39.5919 35.1712 39.5926ZM36.3157 39.7787L36.3262 38.5824L36.5338 38.5842L36.531 38.9092L36.5114 38.8278C36.5452 38.7453 36.6014 38.6826 36.68 38.6397C36.7587 38.5967 36.8552 38.5757 36.9695 38.5767L36.9677 38.7866C36.9587 38.785 36.9497 38.7842 36.9406 38.7841C36.9331 38.7841 36.9256 38.784 36.9181 38.7839C36.8022 38.7829 36.7101 38.8167 36.6418 38.8854C36.5735 38.954 36.5387 39.0538 36.5376 39.1847L36.5324 39.7806L36.3157 39.7787ZM37.9349 39.8063C37.8191 39.8053 37.7155 39.7788 37.6241 39.7269C37.5343 39.6749 37.4634 39.6028 37.4116 39.5106C37.3597 39.4183 37.3343 39.3113 37.3354 39.1894C37.3364 39.0675 37.3637 38.9616 37.4171 38.8718C37.4706 38.7805 37.5427 38.7096 37.6334 38.6593C37.7257 38.6089 37.8297 38.5842 37.9456 38.5852C38.0464 38.5861 38.1373 38.6095 38.2181 38.6553C38.299 38.7012 38.3631 38.7695 38.4105 38.8602C38.4593 38.9509 38.4832 39.064 38.482 39.1994C38.4808 39.3348 38.4557 39.4475 38.4068 39.5373C38.3594 39.6272 38.2948 39.6951 38.2132 39.741C38.1315 39.7855 38.0388 39.8072 37.9349 39.8063ZM37.9546 39.6169C38.0299 39.6176 38.0978 39.6008 38.1582 39.5668C38.2202 39.5327 38.2688 39.4842 38.304 39.4213C38.3407 39.3569 38.3594 39.2826 38.3601 39.1983C38.3608 39.1126 38.3434 39.0387 38.3079 38.9767C38.2738 38.9132 38.2261 38.8638 38.1647 38.8287C38.1048 38.7935 38.0372 38.7757 37.962 38.775C37.8853 38.7743 37.8166 38.791 37.7561 38.8251C37.6957 38.8592 37.6471 38.9077 37.6104 38.9706C37.5738 39.0319 37.5551 39.1055 37.5543 39.1913C37.5536 39.2756 37.571 39.3502 37.6065 39.4152C37.6421 39.4787 37.6898 39.5281 37.7497 39.5632C37.8096 39.5983 37.8779 39.6162 37.9546 39.6169ZM38.3617 39.7965L38.3645 39.4738L38.3804 39.1962L38.3603 38.9184L38.3672 38.1217L38.5839 38.1235L38.5693 39.7983L38.3617 39.7965Z" fill="white"/>
<rect width="42.2713" height="33.4477" transform="translate(7.78711 9.42285)" fill="url(#paint0_linear_137_4084)" fill-opacity="0.1"/>
<path fill-rule="evenodd" clip-rule="evenodd" d="M49.1848 41.8185C49.1944 41.8558 49.1995 41.895 49.1995 41.9353C49.1995 42.1937 48.9901 42.4031 48.7317 42.4031H44.0537C43.7954 42.4031 43.5859 42.1937 43.5859 41.9353C43.5859 41.677 43.7954 41.4675 44.0537 41.4675H48.264V37.0235C48.264 36.7651 48.4734 36.5557 48.7318 36.5557C48.9901 36.5557 49.1996 36.7651 49.1996 37.0235L49.1996 41.7015C49.1996 41.7419 49.1945 41.7811 49.1848 41.8185Z" fill="#685CE1"/>
<path fill-rule="evenodd" clip-rule="evenodd" d="M48.7233 9.89038C48.7261 9.89033 48.7289 9.89031 48.7318 9.89031C48.9901 9.89031 49.1996 10.0997 49.1996 10.3581L49.1996 15.0361C49.1996 15.2945 48.9901 15.5039 48.7318 15.5039C48.4734 15.5039 48.264 15.2945 48.264 15.0361V10.826H44.0537C43.7954 10.826 43.5859 10.6165 43.5859 10.3582C43.5859 10.0998 43.7954 9.89038 44.0537 9.89038H48.7233Z" fill="#685CE1"/>
<path fill-rule="evenodd" clip-rule="evenodd" d="M8.9309 42.091C9.00511 42.1404 9.09425 42.1693 9.19014 42.1693H13.8681C14.1265 42.1693 14.3359 41.9599 14.3359 41.7015C14.3359 41.4431 14.1265 41.2337 13.8681 41.2337H9.65789V37.0235C9.65789 36.7651 9.44845 36.5557 9.19009 36.5557C8.93173 36.5557 8.72229 36.7651 8.72229 37.0235L8.72229 41.7015C8.72229 41.864 8.80514 42.0071 8.9309 42.091Z" fill="#685CE1"/>
<path fill-rule="evenodd" clip-rule="evenodd" d="M8.73705 10.4754C8.72745 10.4381 8.72234 10.399 8.72234 10.3586C8.72234 10.1003 8.93178 9.89081 9.19014 9.89081H13.8681C14.1265 9.89081 14.3359 10.1003 14.3359 10.3586C14.3359 10.617 14.1265 10.8264 13.8681 10.8264H9.65789V15.2705C9.65789 15.5288 9.44845 15.7383 9.19009 15.7383C8.93173 15.7383 8.72229 15.5288 8.72229 15.2705L8.72229 10.5925C8.72229 10.5521 8.72741 10.5129 8.73705 10.4754Z" fill="#685CE1"/>
<defs>
<linearGradient id="paint0_linear_137_4084" x1="21.1357" y1="0" x2="21.1357" y2="33.4477" gradientUnits="userSpaceOnUse">
<stop stop-color="#2997FF"/>
<stop offset="1" stop-color="#2997FF" stop-opacity="0"/>
</linearGradient>
</defs>
</svg>
