<svg width="16" height="18" viewBox="0 0 16 18" fill="none" xmlns="http://www.w3.org/2000/svg">
<path d="M12.9755 17.0869C12.3551 17.0869 11.8269 16.8692 11.3909 16.4338C10.9549 15.9995 10.7368 15.4716 10.7368 14.8501C10.7368 14.7308 10.7473 14.6076 10.7682 14.4805C10.7884 14.3529 10.8192 14.233 10.8603 14.1209L3.93326 10.0391C3.71435 10.286 3.45965 10.4784 3.16916 10.6162C2.87926 10.7546 2.56849 10.8238 2.23684 10.8238C1.6153 10.8238 1.0874 10.6066 0.653158 10.1724C0.217719 9.73755 0 9.20965 0 8.5887C0 7.96835 0.217719 7.44016 0.653158 7.00412C1.08681 6.56809 1.6147 6.35007 2.23684 6.35007C2.56849 6.35007 2.87926 6.41927 3.16916 6.55765C3.45965 6.69544 3.71435 6.88781 3.93326 7.13476L10.8603 3.05297C10.8192 2.94083 10.7884 2.82093 10.7682 2.69328C10.7473 2.56623 10.7368 2.44305 10.7368 2.32376C10.7368 1.70221 10.9543 1.17432 11.3891 0.740072C11.8234 0.304633 12.3509 0.0869141 12.9719 0.0869141C13.5922 0.0869141 14.1204 0.304335 14.5565 0.739177C14.9925 1.17342 15.2105 1.70102 15.2105 2.32197C15.2105 2.94232 14.9928 3.47051 14.5574 3.90655C14.1231 4.34258 13.5952 4.5606 12.9737 4.5606C12.642 4.5606 12.3313 4.49141 12.0414 4.35302C11.7509 4.21523 11.4962 4.02286 11.2773 3.77591L4.35021 7.8577C4.39137 7.96984 4.42209 8.08914 4.44237 8.2156C4.46325 8.34265 4.47368 8.46523 4.47368 8.58333C4.47368 8.70144 4.46325 8.82521 4.44237 8.95465C4.42209 9.08349 4.39137 9.20398 4.35021 9.31612L11.2773 13.3979C11.4962 13.151 11.7509 12.9586 12.0414 12.8208C12.3313 12.6824 12.642 12.6132 12.9737 12.6132C13.5952 12.6132 14.1231 12.8307 14.5574 13.2655C14.9928 13.6997 15.2105 14.2273 15.2105 14.8483C15.2105 15.4686 14.9934 15.9968 14.5592 16.4329C14.1243 16.8689 13.5964 17.0869 12.9755 17.0869ZM12.9737 3.66586C13.3417 3.66586 13.6576 3.53434 13.9212 3.27128C14.1843 3.00763 14.3158 2.69179 14.3158 2.32376C14.3158 1.95572 14.1843 1.63988 13.9212 1.37623C13.6576 1.11318 13.3417 0.981651 12.9737 0.981651C12.6056 0.981651 12.2898 1.11318 12.0262 1.37623C11.7631 1.63988 11.6316 1.95572 11.6316 2.32376C11.6316 2.69179 11.7631 3.00763 12.0262 3.27128C12.2898 3.53434 12.6056 3.66586 12.9737 3.66586ZM2.23684 9.92902C2.60488 9.92902 2.92072 9.79749 3.18437 9.53444C3.44742 9.27079 3.57895 8.95495 3.57895 8.58691C3.57895 8.21888 3.44742 7.90304 3.18437 7.63939C2.92072 7.37634 2.60488 7.24481 2.23684 7.24481C1.86881 7.24481 1.55296 7.37634 1.28932 7.63939C1.02626 7.90304 0.894737 8.21888 0.894737 8.58691C0.894737 8.95495 1.02626 9.27079 1.28932 9.53444C1.55296 9.79749 1.86881 9.92902 2.23684 9.92902ZM12.9737 16.1922C13.3417 16.1922 13.6576 16.0607 13.9212 15.7976C14.1843 15.5339 14.3158 15.2181 14.3158 14.8501C14.3158 14.482 14.1843 14.1662 13.9212 13.9025C13.6576 13.6395 13.3417 13.508 12.9737 13.508C12.6056 13.508 12.2898 13.6395 12.0262 13.9025C11.7631 14.1662 11.6316 14.482 11.6316 14.8501C11.6316 15.2181 11.7631 15.5339 12.0262 15.7976C12.2898 16.0607 12.6056 16.1922 12.9737 16.1922Z" fill="black"/>
</svg>
