<svg width="42" height="42" viewBox="0 0 42 42" fill="none" xmlns="http://www.w3.org/2000/svg">
<g filter="url(#filter0_ii_137_4012)">
<path fill-rule="evenodd" clip-rule="evenodd" d="M9.62422 3.5C8.07782 3.5 6.82422 4.7536 6.82422 6.3V35.7C6.82422 37.2464 8.07782 38.5 9.62422 38.5H32.3742C33.9206 38.5 35.1742 37.2464 35.1742 35.7V6.3C35.1742 6.28881 35.1742 6.27764 35.174 6.26649V12.25L26.424 3.5H9.62422Z" fill="#FA4E4E"/>
</g>
<path d="M24.1111 15H28V19.6875M17.8889 15H14V19.6875" stroke="white" stroke-width="2" stroke-linecap="round" stroke-linejoin="round"/>
<path d="M21 30V23.8569C21.0038 23.4627 20.9367 23.0716 20.8025 22.7066C20.6683 22.3416 20.4698 22.01 20.2187 21.7312L15 15.9375M23 20.3783L27 15.9375" stroke="white" stroke-width="2" stroke-linecap="round" stroke-linejoin="round"/>
<path d="M34.3548 11.4297H27.2461L35.1758 19.3594L35.1758 12.25L34.3548 11.4297Z" fill="url(#paint0_linear_137_4012)"/>
<path d="M29.2258 12.25L35.1758 12.25L26.4258 3.5L26.4258 9.45C26.4258 10.9964 27.6794 12.25 29.2258 12.25Z" fill="#FDB8B8"/>
<defs>
<filter id="filter0_ii_137_4012" x="6.82422" y="3.325" width="28.3496" height="35.35" filterUnits="userSpaceOnUse" color-interpolation-filters="sRGB">
<feFlood flood-opacity="0" result="BackgroundImageFix"/>
<feBlend mode="normal" in="SourceGraphic" in2="BackgroundImageFix" result="shape"/>
<feColorMatrix in="SourceAlpha" type="matrix" values="0 0 0 0 0 0 0 0 0 0 0 0 0 0 0 0 0 0 127 0" result="hardAlpha"/>
<feOffset dy="-0.35"/>
<feGaussianBlur stdDeviation="0.0875"/>
<feComposite in2="hardAlpha" operator="arithmetic" k2="-1" k3="1"/>
<feColorMatrix type="matrix" values="0 0 0 0 0 0 0 0 0 0 0 0 0 0 0 0 0 0 0.3 0"/>
<feBlend mode="normal" in2="shape" result="effect1_innerShadow_137_4012"/>
<feColorMatrix in="SourceAlpha" type="matrix" values="0 0 0 0 0 0 0 0 0 0 0 0 0 0 0 0 0 0 127 0" result="hardAlpha"/>
<feOffset dy="0.35"/>
<feGaussianBlur stdDeviation="0.0875"/>
<feComposite in2="hardAlpha" operator="arithmetic" k2="-1" k3="1"/>
<feColorMatrix type="matrix" values="0 0 0 0 1 0 0 0 0 1 0 0 0 0 1 0 0 0 0.3 0"/>
<feBlend mode="normal" in2="effect1_innerShadow_137_4012" result="effect2_innerShadow_137_4012"/>
</filter>
<linearGradient id="paint0_linear_137_4012" x1="29.0234" y1="9.65234" x2="36.9531" y2="17.582" gradientUnits="userSpaceOnUse">
<stop stop-opacity="0.2"/>
<stop offset="1" stop-opacity="0"/>
</linearGradient>
</defs>
</svg>
